<?xml version="1.0" standalone="no"?>
<!DOCTYPE svg PUBLIC "-//W3C//DTD SVG 1.1//EN" "http://www.w3.org/Graphics/SVG/1.1/DTD/svg11.dtd" >
<svg>
<metadata>
Created by FontForge 20090914 at Thu Feb 23 22:27:06 2012
 By root
Generated by Fontographer 4.1.2
</metadata>
<defs>
<font id="Misfit2" horiz-adv-x="801" >
  <font-face 
    font-family="Misfit2"
    font-weight="400"
    font-stretch="normal"
    units-per-em="1000"
    panose-1="0 0 4 0 0 0 0 0 0 0"
    ascent="800"
    descent="-200"
    x-height="599"
    cap-height="780"
    bbox="-34 -94 846 857"
    underline-thickness="20"
    underline-position="-123"
    unicode-range="U+0020-U+F002"
  />
<missing-glyph horiz-adv-x="500" 
d="M63 0v800h375v-800h-375zM125 63h250v675h-250v-675z" />
    <glyph glyph-name=".notdef" horiz-adv-x="500" 
d="M63 0v800h375v-800h-375zM125 63h250v675h-250v-675z" />
    <glyph glyph-name=".null" horiz-adv-x="0" 
 />
    <glyph glyph-name="nonmarkingreturn" horiz-adv-x="413" 
 />
    <glyph glyph-name="space" unicode=" " horiz-adv-x="413" 
 />
    <glyph glyph-name="exclam" unicode="!" horiz-adv-x="259" 
d="M73 10q6 38 -16.5 43t-24.5 63q24 12 66 26q17 1 70 -16q-16 -37 -16 -56q0 -8 5 -12t5 -12q0 -16 -14 -46zM48 186q-13 115 -13 196q0 69 11 94q6 14 6 45q0 85 -40 259q45 -6 118 -21q14 -4 28 -4q53 0 101 45q-3 -36 -39 -191q-34 -147 -34 -173q0 -10 4 -9
q-37 -11 -47 -256z" />
    <glyph glyph-name="quotedbl" unicode="&#x22;" horiz-adv-x="333" 
d="M57 639l68 -2q26 17 25 23q0 1 4 7t4 10q0 10 -18 18q-39 19 -39 33q0 7 11 17.5t12 15.5q11 22 33 56q11 16 11 14q0 8 -28 8q-20 0 -34 -15q-22 -23 -38 -63q-2 -6 -19 -39q-11 -21 -11 -34q0 -6 3 -12q10 -22 16 -37zM57 639l68 -2q26 17 25 23q0 1 4 7t4 10
q0 10 -18 18q-39 19 -39 33q0 7 11 17.5t12 15.5q11 22 33 56q11 16 11 14q0 8 -28 8q-20 0 -34 -15q-22 -23 -38 -63q-2 -6 -19 -39q-11 -21 -11 -34q0 -6 3 -12q10 -22 16 -37zM188 633l68 -1q26 17 25 23q0 1 3.5 7t3.5 10q0 10 -17 18q-39 18 -39 33q0 7 10.5 17.5
t12.5 14.5q10 23 33 57q11 16 11 14q0 8 -28 8q-21 0 -34 -15q-22 -24 -38 -63q-2 -6 -19 -39q-11 -22 -11 -34q0 -6 3 -12q10 -22 16 -38zM188 633l68 -1q26 17 25 23q0 1 3.5 7t3.5 10q0 10 -17 18q-39 18 -39 33q0 7 10.5 17.5t12.5 14.5q10 23 33 57q11 16 11 14
q0 8 -28 8q-21 0 -34 -15q-22 -24 -38 -63q-2 -6 -19 -39q-11 -22 -11 -34q0 -6 3 -12q10 -22 16 -38z" />
    <glyph glyph-name="numbersign" unicode="#" 
d="M328 580q-15 17 -30 14q-12 -2 -23.5 -17t-11.5 -39q0 -17 3.5 -52.5t3.5 -53.5q0 -17 -21 -17q-12 0 -35 6t-35 6q-15 0 -15 -11t-12 -26t-9 -18q5 -7 23 -15.5t30 -8.5q5 0 8 1q8 5 33.5 8t26.5 3q10 5 10 -3q0 -6 -4 -20q-5 -19 -3 -33t1 -23q-3 -16 -5 -19
q-3 -6 -13 -6q-5 0 -14 1q-60 10 -79 2q-5 -2 -32 -7q-19 -3 -19 -8q0 -10 34.5 -25.5t46.5 -14.5q49 6 58 -5q7 -4 13 -7q7 -7 6 -39q-1 -15 -4.5 -41t-3.5 -35q0 -19 12 -24q7 -2 13 -2q7 0 13.5 6l13.5 12t17 63q8 49 8 67q0 12 24 12q18 0 26.5 -8t9.5 -12q2 -7 0 -32
q-1 -13 -6.5 -34.5t-5.5 -30.5q0 -18 20 -37q6 -6 16 -2q1 1 7.5 -2.5t10.5 -3.5q11 0 11 33q0 25 -2 76q-1 38 0 41q2 5 28 5q57 0 60 3q20 15 20 33q0 5 -3 6q-32 16 -63 16q-15 0 -40 6q-2 82 0 90q7 24 40 24h46q18 -5 18 18q0 4 -1 8q-3 10 -6 19t-13 11h-69
q-14 0 -17 42q-1 14 1 48q1 39 1 40.5t2 13.5q1 10 0 14q-2 5 -8 3q-5 -2 -14 0q-11 3 -14 3q-11 0 -9 -19q1 -67 4 -145q2 -8 -25 -10q-23 -1 -36.5 1.5t-17.5 150.5zM331 355h69v-83h-69v83z" />
    <glyph glyph-name="dollar" unicode="$" horiz-adv-x="434" 
d="M297 749l41 -89l49 -95q21 -46 21 -95l-159 44l15 -162l99 -47l69 -103l-55 -133l-87 -26l-12 -60l-70 -17l-34 68l-51 4q-46 46 -46 48v0q3 -3 7 -5v0q0 2 -59 61l68 47l108 -52l-14 99l-103 91q-67 188 -67 208q0 56 8 126q46 66 46 69v0q-3 -3 -5 -6h1q7 0 86 53
l12 69l78 -5l4 -56zM141 406l55 -41l-4 146zM298 180l-42 43v-90z" />
    <glyph glyph-name="percent" unicode="%" horiz-adv-x="889" 
d="M796 308q50 -50 50 -120q0 -26 -23 -64q-25 -41 -27 -57q-7 -49 -120 -49q-71 0 -121 49.5t-50 120.5q0 31 15 53q8 13 39 44q53 53 118 53q49 0 65 -3q32 -5 54 -27zM605 714h54q7 -25 7 -52q0 -48 -24 -80q-21 -27 -374 -583h-54zM268 454q29 15 29 71q0 55 -29 71
q-20 11 -38 11q-15 0 -33 -7q-5 -2 -38 -7q-21 -3 -26.5 -14.5t-22.5 -26.5q-14 -11 -14 -27q0 -15 11 -36q15 -26 18 -35q10 -32 50 -32q11 0 21 3q19 3 39 6.5t33 22.5zM317 646q28 -10 38 -49l12 -72q1 -7 1 -14q0 -32 -51 -106q-39 -55 -93 -55q-14 0 -28 6q-9 3 -65 20
q-35 10 -55 29q-51 51 -51 105q0 53 51 136q18 29 54 38l66 12q9 2 18 2q51 0 103 -52zM776 188q0 41 -29 70q-9 9 -22 9q-7 0 -24 -4.5t-27 -4.5h-33q-13 -2 -26 -15q-11 -16 -40 -55q-5 -7 -5 -16q0 -21 34 -56q29 -29 72 -29q41 0 70.5 29.5t29.5 71.5z" />
    <glyph glyph-name="ampersand" unicode="&#x26;" horiz-adv-x="506" 
d="M279 793l137 -104q14 -76 14 -128q0 -37 -8 -53q-14 -30 -35 -144l-89 -43l47 -95l46 92l100 -25l-83 -134l33 -25l58 9l13 -104l-125 -25l-50 66l-92 -79l-96 -4l-79 54l-46 125l46 49v0l-4 -4v0l88 94l-67 36l-54 157q-4 11 -4 41q0 56 12 156l121 92zM278 439
q7 22 7 40q0 35 -29 53l-35 17l-49 -75l55 -60zM249 118q5 22 5 43q0 25 -8 39q-16 26 -59 22l-46 -67l29 -41z" />
    <glyph glyph-name="quotesingle" unicode="'" horiz-adv-x="215" 
d="M68 652l67 -5q27 15 26 21q0 1 4.5 7t4.5 11q0 9 -17 18q-37 20 -37 34q0 7 11.5 17.5t13.5 14.5q11 22 36 54q11 16 11 14q0 10 -31 10q-18 0 -31 -14q-23 -22 -41 -61q-2 -4 -22 -39q-12 -21 -12 -33q0 -6 2 -11q9 -22 15 -38zM68 652l67 -5q27 15 26 21q0 1 4.5 7
t4.5 11q0 9 -17 18q-37 20 -37 34q0 7 11.5 17.5t13.5 14.5q11 22 36 54q11 16 11 14q0 10 -31 10q-18 0 -31 -14q-23 -22 -41 -61q-2 -4 -22 -39q-12 -21 -12 -33q0 -6 2 -11q9 -22 15 -38z" />
    <glyph glyph-name="parenleft" unicode="(" horiz-adv-x="244" 
d="M208 568q-79 -47 -81 -47t-69 -125q-6 -118 -3 -119q1 0 40.5 -47t42.5 -48q6 0 90 22l-59 125l-31 55q28 43 59 97q3 10 11 87z" />
    <glyph glyph-name="parenright" unicode=")" horiz-adv-x="280" 
d="M91 545q79 -47 81 -47t69 -126q6 -117 3 -118q-1 0 -40.5 -47t-42.5 -48q-6 0 -90 22l59 125l31 55q-28 43 -59 97q-3 10 -11 87z" />
    <glyph glyph-name="asterisk" unicode="*" horiz-adv-x="389" 
d="M220 717l-2 -88l108 17l20 -55l-82 -28l41 -98l-48 -35l-62 69q-9 -20 -19 -34q-24 -35 -48 -35v0l-49 35l67 92l-108 34l20 55l82 -28l23 99h57z" />
    <glyph glyph-name="plus" unicode="+" horiz-adv-x="378" 
d="M213 517q-20 -17 -46 -44q-13 -22 -6 -69q0 -6 4 -19.5t4 -18.5q0 -13 -17 -11q-6 0 -37 5q-23 3 -34 3q-14 0 -15 -4.5t-11.5 -14t-10.5 -18.5q0 -4 2 -8q17 -39 26 -39q1 0 12 4t23 4q5 0 15.5 -1.5t16.5 -1.5q11 0 17 3.5t5 3.5q8 0 19 -23t11 -33q0 -19 -14 -45.5
t-14 -31.5q0 -18 51 -18q43 0 43 20q0 5 -3.5 20t-3.5 25q0 9 6 70q2 17 19 21q6 1 33 1q43 0 43 25q0 6 -3 13q-4 7 9 16.5t13 11.5q0 8 -68 9q-12 0 -18 -7.5t-10 -7.5q-28 0 -28 39q0 12 2 38.5t2 36.5q0 14 -2 20q-9 21 -35 26z" />
    <glyph glyph-name="comma" unicode="," horiz-adv-x="242" 
d="M214 116l-66 14q-29 -11 -29 -17q0 -1 -5.5 -7t-5.5 -11q0 -9 14 -19q33 -23 33 -37q0 -8 -12 -16q-15 -11 -18 -14q-14 -20 -43 -49q-13 -13 -13 -12q0 -5 15 -9.5t21 -4.5q14 0 26 9q26 19 49 55l31.5 42t11.5 36z" />
    <glyph glyph-name="hyphen" unicode="-" horiz-adv-x="388" 
d="M72 402l-18 -24l11 -24l58 -9l28 26l43 -1l42 -18l57 7l44 7l26 22l-23 19l-40 2l-71 -5q9 -1 -16.5 -5t-43.5 -4q-14 0 -14 3t12 9q-3 -1 -60 2z" />
    <glyph glyph-name="hyphen" unicode="&#x2010;" horiz-adv-x="388" 
d="M72 402l-18 -24l11 -24l58 -9l28 26l43 -1l42 -18l57 7l44 7l26 22l-23 19l-40 2l-71 -5q9 -1 -16.5 -5t-43.5 -4q-14 0 -14 3t12 9q-3 -1 -60 2z" />
    <glyph glyph-name="period" unicode="." horiz-adv-x="154" 
d="M64 39q0 17 10 34.5t29 17.5q8 0 17 -4q20 -9 20 -23q0 -63 -39 -63q-15 0 -26 11t-11 27z" />
    <glyph glyph-name="slash" unicode="/" horiz-adv-x="351" 
d="M273 740q7 1 24 -4q10 7 23 10q17 -17 17 -47q0 -25 -12 -53q-13 -31 -36 -65q-30 -45 -39 -62q-15 -26 -32 -78q-19 -55 -32 -80l-36 -67q-13 -26 -45 -105q-24 -59 -50 -97q-41 -63 -53 -58l11 58l235 634z" />
    <glyph glyph-name="zero" unicode="0" horiz-adv-x="473" 
d="M21 635l209 165l135 -39l82 -165l-56 -492l-165 -104l-96 39l-100 144zM324 450l-89 107q2 12 -6 12q-21 0 -50 -42q-34 -50 -34 -111q0 -63 40 -125l16 -104l42 -42l53 65z" />
    <glyph glyph-name="one" unicode="1" horiz-adv-x="317" 
d="M158 795l121 -56l-34 -739h-121q-11 62 -11 103q0 48 16 51q12 2 12 57q0 81 -23 242l-87 -49l-11 64l-7 240q47 54 66 54q7 0 10 -8.5t10 -8.5q18 0 59 50z" />
    <glyph glyph-name="two" unicode="2" horiz-adv-x="483" 
d="M67 456l-45 203q46 68 66 88l60 53l223 -19q47 -48 40.5 -62t41.5 -64q-11 -70 -21 -120q-23 -120 -34 -122q-16 -3 -42 -185v0v0q-44 -5 -131 -78l233 -9l-10 -117l-402 -24l-19 112l247 208l3 139l-57 55q-122 -15 -122 -39q0 -3 4 -8.5t4 -9.5q0 -6 -11 -6t-28 5z" />
    <glyph glyph-name="three" unicode="3" horiz-adv-x="450" 
d="M245 800l146 -27l51 -96l-110 -403l68 -36l-1 -131l-76 -107l-169 14l-133 105l59 68l134 -80l58 87l-118 44q-9 23 -9 36q0 11 10 9t10 10q0 14 -8 39l83 -17l28 78l-19 165l-150 -87q-35 69 -35 140q0 18 4 61q3 38 2 61z" />
    <glyph glyph-name="four" unicode="4" horiz-adv-x="536" 
d="M403 800l32 -464q21 12 32 12q9 0 9 -10t8 -10q10 0 29 12l14 -116l-97 -10q4 -23 4 -45q0 -38 -17.5 -58.5t-17.5 -52.5q0 -21 4 -43l-112 -15l-21 210l-183 -16l-29 124q15 45 28 80q33 86 56 113q13 16 24 94q9 73 22 79q9 4 9 18q0 24 -23 71zM280 309q-14 29 -14 54
q0 16 13 36.5t13 49.5q0 43 -15 102l-113 -237z" />
    <glyph glyph-name="five" unicode="5" horiz-adv-x="434" 
d="M346 800q22 -37 22 -67q0 -22 -17 -40t-17 -38q0 -28 22 -60q-75 6 -118 -19q-30 -19 -68 -19q-15 0 -27 3l-1 -147l125 4l135 -51l23 -222l-79 -125l-182 -19l-139 88l88 70l84 -70q6 50 37 45t47 58l-60 138l-102 -23l-80 41q-11 13 -11 31q0 15 8 29q2 3 2 13
q0 13 -6.5 68.5t-6.5 83.5q0 26 9.5 49.5t9.5 41.5q0 48 -24 123z" />
    <glyph glyph-name="six" unicode="6" horiz-adv-x="483" 
d="M343 800l95 -118q-24 -38 -24 -64q0 -12 8 -21t8 -21q0 -26 -24 -65q-9 15 -19 26q-22 27 -39 32q-26 7 -40 40q-23 -11 -60 -37q-14 -14 -58 -35l-10 -153l54 9h145l95 -104l-45 -235q-22 -4 -39 -8q-41 -10 -53 -21q-24 -23 -79 -25q-49 51 -94.5 47.5t-82.5 42.5
q-33 87 -33 154q0 19 8.5 54.5t8.5 54.5q0 87 -42 235q16 31 30 54q34 56 54 65q29 13 65 93h171zM222 139l72 -11l52 83l-35 110l-109 -32q-1 6 -3.5 -14.5t-2.5 -44.5q0 -72 26 -91z" />
    <glyph glyph-name="seven" unicode="7" horiz-adv-x="476" 
d="M461 800q-10 -32 -10 -54q0 -18 10 -25t10 -21q0 -10 -4.5 -24.5t-3 -15.5t-53.5 -224l-111 -237l-28 -175l-69 20l-83 -44l32 162q71 124 71 197q0 10 -2 19q-10 55 103 211l-173 23q-22 -2 -45 -2q-79 0 -79 26q0 6 5 13q13 20 13 50q0 42 -22 92l342 -23
q37 -2 43 14.5t54 17.5z" />
    <glyph glyph-name="eight" unicode="8" horiz-adv-x="493" 
d="M330 800q15 -6 27 -15q29 -23 39 -61q13 -56 53 -62q-3 -58 -7 -99q-9 -100 -18 -104q-20 -8 -43 -92l69 -51l9 -201l-189 -115l-165 51l-83 105q4 26 9 46q10 50 21 67q30 48 81 70l-42 33l-55 299l64 106zM338 471l-20 98l-61 43l-89 -32l5 -98l58 -69l61 17zM349 249
l-98 40l-98 -86l67 -106l78 13z" />
    <glyph glyph-name="nine" unicode="9" horiz-adv-x="447" 
d="M19 673q0 36 24 54t89 9l160 64q15 -9 28 -18q32 -22 46 -40q21 -27 31 -69q14 -142 14 -224q0 -24 -9 -67.5t-9 -66.5q0 -69 13 -183l-114 -119l-141 -13l-127 123l101 40l44 -58l53 -8q-1 84 36 103q41 20 47 132l-118 -26l-145 70q-41 153 -42 129q10 84 19 168z
M268 577l-93 -3l-41 -95l36 -57l86 26z" />
    <glyph glyph-name="colon" unicode=":" horiz-adv-x="140" 
d="M38 299q0 17 9 32q11 19 29 19q9 0 18 -4q20 -9 20 -22q0 -64 -39 -64q-15 0 -26 11.5t-11 27.5zM67 514q-32 -20 -32 -41q0 -16 10.5 -31t24.5 -15q27 0 35 17q12 23 12 30q0 8 -6 14q-11 13 -44 26z" />
    <glyph glyph-name="semicolon" unicode=";" horiz-adv-x="207" 
d="M74 192q0 21 13.5 36t32.5 15q50 0 50 -34q0 -8 -3 -17q-18 -49 -47 -50q-46 -3 -46 50zM112 99q-57 -4 -57 -23q0 -3 2 -6q23 -50 23 -69q0 -9 5 -11.5t5 -4.5q0 -4 -10 -22q-13 -22 -30 -39q-12 -11 -10 -15q0 -3 6 -3q10 0 28.5 7t22.5 13q10 26 29 64q5 7 12.5 35.5
t7.5 45.5q0 10 -2 14q-9 13 -32 14z" />
    <glyph glyph-name="less" unicode="&#x3c;" horiz-adv-x="259" 
d="M243 291l-83 11q-2 0 -81 59q-4 71 -2 71q1 1 34 32t37.5 32t68.5 11l-41 -84l-36 -48q39 -15 82 -35q3 -5 21 -49z" />
    <glyph glyph-name="equal" unicode="=" horiz-adv-x="393" 
d="M80 474l-18 -24l11 -24l59 -9l28 27l42 -2l42 -17l57 6l45 7l26 23l-23 19l-41 2l-70 -6q-59 5 -62.5 3.5t-59.5 2.5zM86 356l-18 -24l11 -24l59 -9l28 26l42 -1l42 -18l57 7l45 7l26 22l-23 19l-41 2l-70 -5q-59 5 -62.5 3.5t-59.5 1.5z" />
    <glyph glyph-name="greater" unicode="&#x3e;" horiz-adv-x="298" 
d="M128 499l80 -28q2 0 67 -75q-5 -34 -14 -69q-1 0 -39.5 -23.5t-41.5 -24.5q-6 0 -71 4l58 74l30 32q-28 26 -58 58q-2 6 -11 52z" />
    <glyph glyph-name="question" unicode="?" horiz-adv-x="402" 
d="M42 414q-34 85 -34 109q0 8 4 8q10 0 10 52q0 35 -4 81l118 136l160 -19q44 -23 44 -49q0 -4 -2 -11t-2 -10q0 -28 49 -57q-47 -77 -47 -138q0 -16 7 -41t7 -41q0 -72 -56 -185l-24 -84l-103 9l14 104l108 103l-31 162l-72 14q-75 -29 -72 -70.5t-74 -72.5zM282 104
q-6 -19 -6 -33t7 -18q4 -2 4 -7q0 -12 -24 -37l-103 -9q0 9 -2 15q-4 15 -13 17q-4 1 -4 9q0 19 19 67q13 3 23 6q23 8 25 16q1 3 5 3q15 0 69 -29z" />
    <glyph glyph-name="at" unicode="@" horiz-adv-x="716" 
d="M129 57q16 -2 43 21.5t31 23.5q2 0 4 -2.5l2 -2.5v0q0 17 -23 70q-3 7 -3 19q0 18 7.5 46.5t7.5 25.5v0q-5 -10 -7 -10q-13 0 -26 110q-2 24 34 69l31 39q-1 0 -3 -1q3 6 6 13q15 18 35.5 37t27.5 18q27 -2 55 -43q37 -54 39 -56q17 -15 17 -45q0 -33 -40 -15
q-64 -49 -172 -54q-10 -6 -10 -12q0 -3 3.5 -9t4.5 -8q0 -1 -2 -7.5t-2 -9.5q0 -11 13 -8q31 3 103 16q91 24 104 24q22 0 19 -15q62 -39 62 -147q0 -26 -4 -49q24 -32 49 -32q24 0 42 32l76 129q49 75 49 130q0 51 -32 115q-30 61 -71 99q-11 11 -31.5 42t-41.5 49
q-13 12 -210 22q-102 4 -156 -10q-70 -18 -124 -58q157 43 216 43q11 0 18 -1l199 -41q34 -11 59 -45q13 -21 25 -43l71 -110q6 -15 6 -45q0 -38 -10 -89l-50 -75l-8 135q-1 12 -40.5 66.5t-39.5 96.5q0 10 2 20l5 38q-6 0 -17 3t-16 3q-58 0 -66 16l-100 65q-4 3 -8 3
q-13 0 -47.5 -41.5t-55.5 -42.5q-45 -2 -73 -64l-32 -77q-16 -33 -47 -67q42 -41 42 -103q0 -11 -25 -163q16 -10 31 -18q34 -18 54 -20z" />
    <glyph glyph-name="A" unicode="A" horiz-adv-x="651" 
d="M130 15q18 -3 48.5 28t35.5 31q2 0 4 -3.5l2 -3.5q1 0 1 1q0 21 -26 91q-4 9 -4 24q0 24 8.5 61.5t8.5 33.5v1q-6 -13 -8 -13q-15 0 -29 143q-3 32 38 90l35 51l-2.5 -1t-3.5 -1q-8 0 31 46t49 45q31 -4 63 -57q41 -71 44 -74q20 -19 20 -59q0 -43 -47 -19
q-71 -64 -193 -70q-12 -8 -12 -16q0 -4 4.5 -11.5t4.5 -11.5q0 -1 -2 -9t-2 -13q0 -14 15 -10q35 4 115 21q104 31 119 31q24 0 21 -20q70 -51 70 -191q0 -35 -4 -65q49 -22 77 -22q27 0 26 22l-18 323q-1 16 -45.5 87.5t-44.5 125.5q0 13 2 27l5 49q-6 0 -18 4t-18 4
q-37 0 -43 1q-25 4 -32 21l-113 84q-4 4 -9 4q-15 0 -54 -54t-62 -56q-51 -3 -83 -84l-37 -100q-17 -44 -53 -88q48 -54 48 -135q0 -15 -28 -213q18 -13 35 -23q39 -24 61 -27z" />
    <glyph glyph-name="B" unicode="B" horiz-adv-x="550" 
d="M261 19q-82 12 -106 12q-6 0 -7 -1h-26q-6 43 -58 90v84q0 6 6.5 14.5t6.5 14.5q0 1 -13 16v52q0 3 4.5 19t4.5 19q0 22 -21 35.5t-21 36.5q0 8 20 19v181q-29 22 -39 57q-7 24 -7 72q0 14 9 27l17 25q44 -1 104 2q69 3 94 3q44 0 87 -5q13 -2 26 -5q15 -2 25 4v-44h33
q1 -16 6 -32q9 6 13 19q17 -17 29 -46q17 -42 22 -50t29 -35q17 -18 17 -37q0 -9 -6.5 -22.5t-6.5 -22.5q0 -5 6.5 -11.5t6.5 -11.5q0 -23 -21 -52.5t-21 -52.5q-28 -4 -28 -27q0 -30 40 -65q3 -23 12 -73q2 -7 14 -24.5t12 -29.5q0 -15 -17 -29q0 -88 -56 -106
q-52 -17 -190 -20zM151 632q3 -28 9 -92q2 -12 -3 -38t-5 -35q0 -18 11 -25q17 -9 50 -9q42 0 65 12q28 15 53 39q32 32 28 53q-3 19 -16 51q-14 38 -16 41q-4 15 -18 28t-31 13q-7 0 -14 -3q-27 -11 -113 -35zM158 295q-8 -65 -8 -100q0 -15 2 -21q5 -19 19.5 -39t29.5 -22
q18 -3 61 3q47 6 57 14l38 26q26 21 26 35q0 19 -5.5 56.5t-9.5 41.5l-32 33t-44 16q-17 0 -41.5 -5.5t-92.5 -37.5z" />
    <glyph glyph-name="C" unicode="C" horiz-adv-x="547" 
d="M296 34l-156 72q-41 39 -53 90h-27l-49 71v110l18 6v84l31 26l1 102q56 37 84 67q36 39 68 108l124 9q27 -39 83 -107q24 -7 49.5 -57.5t45.5 -56.5q3 -5 3 -9q0 -7 -10 -12q-5 -2 -11 -5v-20h31v-129l-71 91l-14 28l-53 17l-4 19h-125l-13 -28q-6 -5 -18 -17
q-4 -5 -4 -13q0 -9 7 -32.5t7 -33.5q0 -13 -10 -18q36 -67 62 -181l62 -30q21 -29 63 -48q38 -17 78 -21q-119 -91 -174 -91q-16 0 -25 9z" />
    <glyph glyph-name="D" unicode="D" horiz-adv-x="568" 
d="M507 145q0 -88 -56 -106q-52 -17 -190 -20q-82 12 -106 12q-6 0 -7 -1h-26q-6 43 -58 90v84q0 6 6.5 14.5t6.5 14.5q0 1 -13 16v52q0 3 4.5 19t4.5 19q0 22 -21 35.5t-21 36.5q0 8 20 19v181q-29 22 -39 57q-7 24 -7 72q0 14 9 27l17 25q44 -1 104 2q69 3 94 3
q44 0 87 -5q13 -2 26 -5q15 -2 25 4v-44h33q1 -16 6 -32q9 6 13 19q17 -17 29 -46q17 -42 22 -50t29 -35q17 -18 17 -37q0 -9 -6.5 -22.5t-6.5 -22.5q0 -5 10.5 -54t10.5 -54q0 -13 5.5 -46.5t5.5 -50.5q0 -35 -17 -56q12 -46 12 -61q0 -34 -23 -54zM151 632q3 -28 9 -92
q4 -18 7 -36q5 -34 5 -64q0 -52 -16 -93q-1 -62 10 -110q10 -42 21 -49q18 -10 57 -22q44 -12 71 -12q17 0 24 5q42 31 42 110q0 16 -1 37q-24 57 -24 140q0 25 2 59q2 28 1 32q-3 19 -16 51q-14 38 -16 41q-4 15 -18 28t-31 13q-7 0 -14 -3q-27 -11 -113 -35z" />
    <glyph glyph-name="E" unicode="E" horiz-adv-x="563" 
d="M196 775q-13 2 -32.5 13.5t-35.5 11.5q-7 0 -15 -9.5t-14 -10.5q-99 -18 -99 -90q0 -34 17 -75q23 -52 28 -72q7 -29 6 -82q-1 -59 3 -83v-81q4 -24 4 -53q0 -14 -1.5 -39.5t-1.5 -37.5q0 -52 17.5 -94t21.5 -48q15 -25 39 -25q41 0 91 18q63 22 91 27h95l49 16.5t48 8.5
q6 0 13.5 -4.5t13.5 -4.5q9 0 22 4t19 5l4 18q-77 38 -95 45q-47 18 -101 22q-98 8 -155 55l-24 12.5t-12 17.5q0 40 48 58l95 23l98 23.5t101 11.5q1 4 5 9t4 9q0 41 -71 41q-16 0 -40 -9t-40 -9q-9 0 -18 7q-13 9 -18 11q-13 4 -43 1.5t-45 4.5q-45 22 -45 86
q0 17 12.5 38t14.5 34q0 1 1 27q0 17 8 25q20 20 52 27q58 13 59 14q76 27 151 27q5 0 14 2t13 2l9 18q-24 4 -56 21.5t-55 21.5q-146 -7 -130 -7q-64 0 -120 18z" />
    <glyph glyph-name="F" unicode="F" horiz-adv-x="544" 
d="M184 139q0 6 4 50q4 41 4 51q0 40 48 58l95 23l98 23.5t101 11.5q1 4 5 9t4 9q0 41 -71 41q-16 0 -40 -9t-40 -9q-9 0 -18 7q-13 9 -18 11q-13 4 -43 1.5t-45 4.5q-45 22 -45 86q0 17 12.5 38t14.5 34q0 1 1 27q0 17 8 25q20 20 52 27q58 13 59 14q76 27 151 27q5 0 14 2
t13 2l9 18q-24 4 -56 21.5t-55 21.5q-146 -7 -130 -7q-64 0 -120 18q-13 2 -32.5 13.5t-35.5 11.5q-7 0 -15 -9.5t-14 -10.5q-99 -18 -99 -90q0 -34 17 -75q23 -52 28 -72q7 -29 6 -82q-1 -59 3 -83v-81q4 -24 4 -53q0 -14 -1.5 -39.5t-1.5 -37.5q0 -52 17 -93
q13 -31 61 -74q14 20 24 41q25 51 27 98z" />
    <glyph glyph-name="G" unicode="G" horiz-adv-x="676" 
d="M460 205q3 6 -26 17q-25 10 -32 10v0q0 -1 18 -7v0q-72 27 -89 27q-8 0 -8 9q0 13 14 40l43 17q179 4 179 -27q0 -6 -9 -14q-4 -3 17 -69l22 -71v-85q-7 0 -16 5t-16 5q-44 0 -64 -42l-167 -14q-28 -2 -84 30l-78 47l-63 26t-44 38q-15 34 -22 123q-7 72 -41 111
q53 53 53 133q0 9 -9.5 20.5t-11.5 16.5q82 58 95 181q15 12 33 12q10 0 30.5 -5.5t31.5 -5.5q13 0 25 7q23 13 23 21q0 4 -7 5l54 27t65 13q49 0 114.5 -47.5t114.5 -47.5q23 0 30 -30q3 -28 7 -55q3 -20 26.5 -51t23.5 -46q0 -11 -7 -20l-37 -47q-3 -4 -53 -5.5t-51 -6.5
q3 107 -40 124q-14 6 -61 9q-54 12 -57 12t-64 -6q14 -35 14 -58q0 -18 -9.5 -22t-20.5 -4q-35 0 -56 18q-2 1 -4 1q-10 0 -26 -15t-22 -30q-7 -19 -16 -61q-9 -45 -7 -57q4 -20 16 -63q15 -52 22 -58q25 -20 66 -63q12 -17 43.5 -33t57.5 -16q8 0 15 2t36 25q12 19 29 50z
" />
    <glyph glyph-name="H" unicode="H" horiz-adv-x="611" 
d="M451 140q3 -7 11 -80q8 -62 16 -62q9 0 26.5 28t20.5 46q10 53 21 168q21 223 21 326q0 8 10.5 73t10.5 94t-10 33q-15 7 -30 13q-18 8 -30 8q-15 0 -24 -11l-40 -37q-25 -23 -25 -42q0 -10 16 -60q16 -46 22 -60q2 -4 2 -9q0 -25 -28 -76l-79 -10q3 0 -42 -8t-71 -8
q-20 0 -29 5q-21 10 -43 19q-23 13 -20 39q16 130 31 153q2 3 2 8q0 23 -33 86l-74 -15q-63 -46 -58 -85q15 -105 21 -131q3 -48 11 -137q2 -53 10 -163q2 -20 4 -86q1 -48 7 -66q9 -27 30 -58q22 -34 33 -34q9 0 10 45v58q0 7 1 10q12 34 12 116q0 14 -2 20q-4 19 5 127
q51 18 79 18q11 0 16 -3q32 -15 72 -15q49 0 96 21l16 -58z" />
    <glyph glyph-name="I" unicode="I" horiz-adv-x="251" 
d="M192 756q-38 6 -54 6q-7 0 -19.5 9.5t-19.5 8.5q-99 -18 -99 -90q0 -34 17 -75q23 -52 28 -72q4 -14 4 -31q0 -19 -7 -57.5t-7 -58.5q0 -12 2 -23l17 -76q4 -24 4 -53q0 -14 -1.5 -39.5t-1.5 -37.5q0 -52 17.5 -94t21.5 -48q15 -25 39 -25l28 58q34 268 34 297l38 378z
" />
    <glyph glyph-name="J" unicode="J" horiz-adv-x="554" 
d="M497 765q-38 6 -54 6q-7 0 -20 9.5t-19 8.5q-99 -18 -99 -90q0 -34 17 -74q23 -53 28 -73q3 -14 3 -31q0 -19 -6.5 -57.5t-6.5 -58.5q0 -12 2 -23l17 -75q3 -22 -30 -107l-33 -81q-37 0 -70 7q-74 17 -103 58q-19 68 -54 68q-21 0 -39 -22t-13 -33l10 -65q18 -57 76 -82
q82 -37 223 -37q31 0 64.5 2.5t32.5 2.5l43 49q34 269 34 297l38 378z" />
    <glyph glyph-name="K" unicode="K" horiz-adv-x="542" 
d="M192 756q-38 6 -54 6q-7 0 -19.5 9.5t-19.5 8.5q-99 -18 -99 -90q0 -34 17 -75q23 -52 28 -72q4 -14 4 -31q0 -19 -7 -57.5t-7 -58.5q0 -12 2 -23l17 -76q4 -24 4 -53q0 -14 -1.5 -39.5t-1.5 -37.5q0 -52 17.5 -94t21.5 -48q15 -25 39 -25l28 58q37 147 31 248
q10 -2 58 -46q20 -59 82 -112q48 -41 56 -41l121 -107l32 35q-100 199 -101 196l-46 32l-26 20l-43 26q-1 -3 -66 87l141 112l161 187l-106 58q-38 1 -38 -31q0 -16 12 -41l-121 -94q-21 -17 -37 -41.5t-12 -25.5q-2 0 -67 -26q0 -3 35 181l6 58z" />
    <glyph glyph-name="L" unicode="L" horiz-adv-x="485" 
d="M192 756q-28 6 -54 6q-7 0 -19.5 9.5t-19.5 8.5q-99 -18 -99 -90q0 -34 17 -75q23 -52 28 -72q4 -14 4 -31q0 -19 -7 -57.5t-7 -58.5q0 -12 2 -23l17 -76q4 -24 4 -53q0 -14 -1.5 -39.5t-1.5 -37.5q0 -52 17.5 -94t21.5 -48q15 -25 39 -25h198l187 21q2 6 2 13
q0 27 -28 50q-31 26 -40 31q-27 14 -66 15q-25 -28 -72 -28q-57 0 -87 26q-43 37 -43 125q0 31 5.5 67.5t5.5 34.5l61 369z" />
    <glyph glyph-name="M" unicode="M" horiz-adv-x="662" 
d="M45 784q50 -31 97 -31q25 0 52 8q22 -57 22 -111q0 -14 -5 -34.5t-5 -34.5q0 -66 32 -135l60 -128l24 84q8 43 23 106q7 19 20 27q19 11 26 19q18 15 21 63q4 69 12 93q16 56 66 90q50 -22 142 -52q-18 -55 -19.5 -121.5t-17.5 -114.5q-3 -9 4 -43q7 -38 7 -43
q0 -45 -6 -113.5t-6 -112.5q0 -102 -1 -110q-6 -57 -38 -90q-5 7 -10 28t-10 26.5t-21.5 5.5t-23.5 5v283q-15 11 -25 26q-40 -45 -64 -87q-5 -9 -2.5 -23.5t-0.5 -22t-18 -24.5t-18 -25q-14 -56 -14 -127q-10 -5 -38 -26q-54 45 -75 108q-16 51 -16 137q0 25 -26 41
q-5 4 -51 23q-3 -72 -18 -174q-16 -111 -21 -174q-1 1 -23 25q-13 14 -28 14q-6 0 -14 -6.5t-12 -6.5q0 134 -13 344.5t-13 345.5q0 72 31 72q7 0 14 -4z" />
    <glyph glyph-name="N" unicode="N" horiz-adv-x="526" 
d="M354 800q4 -3 5.5 -14.5t7.5 -11.5t8 11.5t5 14.5q23 -22 54 -22q14 0 77 17l-3 -59q-4 -11 -8.5 -22t-14.5 -19q0 -54 -6.5 -143t-6.5 -127q13 -79 13 -320q-63 -18 -100 -70q-32 33 -54 94q-29 76 -43 99q-3 11 -23 26.5t-23.5 25t-1.5 31.5t-1 33.5t-18 29.5
q-20 26 -24 33q-41 -38 -60 -125q-22 -101 -45 -138q6 -14 36 -50l-6 4v1q-1 2 -4 6h-39v-79l-27 -26q-15 11 -52 26q41 179 41 262q0 40 -5 87q-7 64 -7 121q0 81 23 252q15 15 34 15q11 0 34.5 -7.5t36.5 -7.5l27 26l65 -26q-26 -65 -26 -99q0 -145 144 -216
q0 139 -13 367z" />
    <glyph glyph-name="O" unicode="O" horiz-adv-x="712" 
d="M376 806q49 0 114.5 -47.5t114.5 -47.5q23 0 30 -30q3 -28 7 -55q3 -21 23 -56.5t20 -60.5v-107q0 -52 -49.5 -124t-49.5 -116q0 -12 3 -25v-85q-7 0 -16 5t-16 5q-44 0 -64 -42l-167 -14q-28 -2 -84 30l-78 47l-63 26t-44 38q-15 34 -22 123q-7 72 -41 111q53 53 53 133
q0 9 -9.5 20.5t-11.5 16.5q82 58 95 181q15 12 33 12q10 0 30.5 -5.5t31.5 -5.5q13 0 25 7q23 13 23 21q0 4 -7 5l54 27t65 13zM443 583q-54 12 -57 12t-64 -6q14 -35 14 -58q0 -18 -9.5 -22t-20.5 -4q-35 0 -56 18q-2 1 -4 1q-10 0 -26 -15t-22 -30q-7 -19 -16 -61
q-9 -45 -7 -57q4 -20 16 -63q15 -52 22 -58q25 -20 66 -63q12 -17 43.5 -33t57.5 -16q8 0 14 2q35 8 93 89q64 89 66 162q2 72 -18 134q-16 53 -30.5 59t-61.5 9z" />
    <glyph glyph-name="P" unicode="P" horiz-adv-x="502" 
d="M197 297q-12 0 -23 -11l-19 -21v-84q0 -6 -6.5 -13t-6.5 -13t6.5 -13t6.5 -13v-84q-8 -4 -13 -13h-26q-6 44 -58 91v84q0 6 6.5 14.5t6.5 14.5q0 1 -13 16v52h26q0 3 3 6.5t3 6.5q0 22 -32 48t-32 49q0 7 19 19v181q-28 21 -38 56q-7 25 -7 73q0 14 8.5 27t17.5 25
q44 -1 104 1q69 4 93 4q44 0 87 -5q14 -3 27 -5q14 -2 25 4v-44h32q1 -16 7 -33q9 7 13 20q17 -18 29 -46q17 -42 21.5 -50t29.5 -35q17 -18 17 -37q0 -10 -6.5 -23t-6.5 -23q0 -4 6.5 -10.5t6.5 -11.5q0 -23 -21 -52.5t-21 -52.5q-86 -13 -86 -75q0 -9 -33 -13
q-21 -2 -42 -5zM146 635q3 -28 9 -92q1 -13 -4 -37q-5 -27 -5 -36q0 -18 12 -25q17 -10 50 -10q42 0 65 13q27 15 53 39q32 32 28 53q-4 19 -16 51q-15 37 -16 41q-4 14 -18.5 27.5t-30.5 13.5q-7 0 -14 -3q-27 -11 -113 -35z" />
    <glyph glyph-name="Q" unicode="Q" horiz-adv-x="719" 
d="M376 806q49 0 114.5 -47.5t114.5 -47.5q23 0 30 -30q3 -28 7 -55q3 -21 23 -56.5t20 -60.5v-107q0 -51 -43 -115t-43 -105q0 -13 3 -28l86 -130q-16 -5 -34 -14q-12 -6 -17 -6q-7 0 -23 13l-57 45q-6 5 -14 5q-27 0 -50 -47l-167 -14q-28 -2 -84 30l-78 47l-63 26t-44 38
q-15 34 -22 123q-7 72 -41 111q53 53 53 133q0 9 -9.5 20.5t-11.5 16.5q82 58 95 181q15 12 33 12q10 0 30.5 -5.5t31.5 -5.5q13 0 25 7q23 13 23 21q0 4 -7 5l54 27t65 13zM443 583q-54 12 -57 12t-64 -6q14 -35 14 -58q0 -18 -9.5 -22t-20.5 -4q-35 0 -56 18q-2 1 -4 1
q-10 0 -26 -15t-22 -30q-7 -19 -16 -61q-9 -45 -7 -57q4 -20 16 -63q15 -52 22 -58q25 -20 66 -63q12 -17 43.5 -33t57.5 -16q8 0 13.5 1.5t27.5 23l22 21.5q-88 80 -88 95q0 5 7 5q8 0 26 -8q17 17 37 17q35 0 73 -43q3 -3 28 51q26 58 27 90q2 72 -18 134q-16 53 -30.5 59
t-61.5 9z" />
    <glyph glyph-name="R" unicode="R" horiz-adv-x="531" 
d="M155 265v-84q0 -6 -6.5 -13t-6.5 -13t6.5 -13t6.5 -13v-84q-8 -4 -13 -13h-26q-6 44 -58 91v84q0 6 6.5 14.5t6.5 14.5q0 1 -13 16v52h26q0 3 3 6.5t3 6.5q0 22 -32 48t-32 49q0 7 19 19v181q-28 21 -38 56q-7 25 -7 73q0 14 8.5 27t17.5 25q44 -1 104 1q69 4 93 4
q44 0 87 -5q14 -3 27 -5q14 -2 25 4v-44h32q1 -16 7 -33q9 7 13 20q17 -18 29 -46q17 -42 21.5 -50t29.5 -35q17 -18 17 -37q0 -10 -6.5 -23t-6.5 -23q0 -4 6.5 -10.5t6.5 -11.5q0 -23 -21 -52.5t-21 -52.5q-86 -13 -86 -75q0 -7 -30 -16t-30 -16q1 -21 31 -65
q33 -49 59 -53q56 -78 66 -130q-1 0 -6.5 -2t-10.5 -2q-14 0 -32 13q-16 -11 -29 -11q-15 0 -29.5 17l-28.5 34q-12 12 -27.5 39t-23.5 33q-4 42 -68 78q-58 33 -69 25zM146 635q3 -28 9 -92q1 -13 -4 -37q-5 -27 -5 -36q0 -18 12 -25q17 -10 50 -10q42 0 65 13q27 15 53 39
q32 32 28 53q-4 19 -16 51q-15 37 -16 41q-4 14 -18.5 27.5t-30.5 13.5q-7 0 -14 -3q-27 -11 -113 -35z" />
    <glyph glyph-name="S" unicode="S" horiz-adv-x="548" 
d="M238 785l99 15q13 -49 77 -93q24 -5 49.5 -39t44.5 -38q3 -4 3 -6q0 -5 -10 -8q-5 -2 -11 -4v-13h31v-87l-70 61l-14 19l-52 11l-4 13h-122l-13 -19q-1 -1 -13 -8q-8 -4 -8 -12q0 -6 6.5 -22t6.5 -22q0 -10 -10 -13q36 -45 61 -122h61q65 -79 127 -79l13 -44l-13 -4
l31 -31q11 19 25 19q3 0 5 -1v-87q-71 -79 -125 -107l-146 -64q-7 10 -26 10q-13 0 -13 -10h-57l-35 44h-74q-18 11 -51.5 79.5t-27.5 86.5h44l17 -44h57l40 -30q7 14 21 14q3 0 5 -1l65 -48h57l5 17l78 53v56q-19 27 -113 97h-118q-41 26 -53 61h-26l-48 48v74l17 5v56
l31 18v69q127 57 176 130z" />
    <glyph glyph-name="T" unicode="T" horiz-adv-x="419" 
d="M359 774q-209 8 -246 0q-13 -2 -62 -4q-34 -1 -41 -10t-7 -25q0 -24 15 -35q23 -15 51 -11q17 3 29.5 -25t12.5 -57q0 -10 -2 -18q-3 -13 0 -23q6 -27 10 -52q8 -58 14 -115q2 -7 1 -23q0 -5 -1 -11q-2 -13 2 -57q6 -56 7 -93q1 -27 -2 -81q-1 -34 4 -56l18 -81
q21 0 18 -1q17 3 22 19q2 6 3 32q0 14 14.5 16.5t24 10t9.5 11.5q0 7 -3 52q-5 83 -15 192q-1 74 -5 185q-5 61 -5 115q0 -1 -2 13q-1 10 0 18q2 10 10 14q15 10 56 27q46 19 65 21q24 4 68 26q30 16 30 22t-6.5 14t-12.5 8q-4 0 -8 -2q-13 -7 -66 -16z" />
    <glyph glyph-name="U" unicode="U" horiz-adv-x="726" 
d="M129 768q20 3 54 -27.5t39 -30.5q3 0 5 3.5t3 3.5v-2q0 -20 -29 -89q-4 -9 -4 -25q0 -23 9.5 -60t9.5 -34v0q-7 13 -9 13q-16 0 -32 -142q-3 -30 32 -96q30 -57 26 -57q1 0 -6 3v0q109 -65 127 -63q36 4 74 35l54 52t49 105q17 63 17 95q0 5 -1 5q3 0 -5 -12q-1 1 -1 3
q0 28 38 271q54 21 85 21q30 0 30 -21l-3 -323q-1 -52 -49.5 -124t-48.5 -116q0 -12 2 -26v-85q-6 0 -15.5 5.5t-16.5 5.5q-43 0 -63 -43l-168 -13q-28 -2 -83 29l-79 48q-31 12 -61 25q-34 13 -45 39q-15 34 -23 122q-6 73 -41 112q53 53 53 133q0 15 -31 211q20 13 39 23
q43 23 68 26z" />
    <glyph glyph-name="V" unicode="V" horiz-adv-x="717" 
d="M129 768q20 3 54 -27.5t39 -30.5q3 0 5 3.5t3 3.5v-2q0 -20 -29 -89q-4 -9 -4 -25q0 -23 9.5 -60t9.5 -34v0q-7 13 -9 13q-16 0 -32 -142q-3 -31 42 -89l39 -50l-2.5 1t-4.5 1q-9 0 34.5 -45.5t55.5 -44.5q35 4 70 56q46 70 49 73q30 26 55 105q20 64 20 86v1
q-2 -6 -5 -12v1q0 14 51 258q55 21 87 21q29 0 28 -21l-20 -320q-1 -15 -51 -86t-50 -125q0 -13 3 -26l6 -49q-7 0 -20.5 -4t-20.5 -4q-40 0 -48 -1q-27 -4 -35 -20l-126 -84q-5 -3 -10 -3q-17 0 -60 53.5t-70 54.5q-56 3 -92 83l-41 99q-20 44 -59 88q53 53 53 133
q0 15 -31 211q20 13 39 23q43 23 68 26z" />
    <glyph glyph-name="W" unicode="W" horiz-adv-x="718" 
d="M129 768q20 3 54 -27.5t39 -30.5q3 0 5 3.5t3 3.5v-2q0 -20 -29 -89q-4 -9 -4 -25q0 -23 9.5 -60t9.5 -34v0q-7 13 -9 13q-16 0 -32 -142q-3 -31 42 -89l39 -50q-5 0 -5 4l19.5 31t19.5 60q0 18 -8 36q48 122 63 124q2 0 21 4q16 4 26 4q32 0 32 -32q0 -25 -19 -69
q12 -42 25 -82.5t23 -40.5q3 0 5 2q30 26 55 105q20 64 20 86v1q-2 -6 -5 -12v1q0 14 51 258q55 21 87 21q29 0 28 -21l-20 -320q-1 -16 -44 -78t-43 -113q0 -14 3 -29l20 -109q-7 0 -26 3t-26 3q-22 0 -52.5 -18t-39.5 -37l-118 207q-3 4 -6 4q-12 0 -69.5 -99.5
t-85.5 -97.5q-29 2 -54 62l-33 91l-41 99q-20 44 -59 88q53 53 53 133q0 15 -31 211q20 13 39 23q43 23 68 26z" />
    <glyph glyph-name="X" unicode="X" horiz-adv-x="730" 
d="M131 766q-25 13 -44 13q-24 0 -31 -21q-3 -8 -15 -33q-10 -18 -10 -29q0 -20 28 -42q87 -67 116 -138q9 -23 32 -48q19 -20 19 -27q0 -6 -5 -11q-8 -7 -8 -38q-1 -34 -24 -69l-67 -102q-38 -60 -40 -75.5t-23 -36.5t-23 -27t-25 -24t-23 -28q0 -5 5 -10q30 -26 67 -26
q9 0 14 3q20 14 51 39q40 34 44 48q7 27 34 86q32 69 49 78q12 7 54 54q39 43 50 44q38 6 38 -6q0 -7 -8.5 -14.5t-9.5 -5.5q5 -12 56.5 -35t64.5 -43q33 -3 33 -28q0 -9 -5.5 -26.5t-5.5 -23.5q0 -7 4 -11q16 -12 49 -60q26 -36 43 -36q4 0 10.5 2t10.5 2q21 0 38 -35
q15 -30 17 -29l24 22q8 7 8 18q0 5 -1 13q-3 20 -41 97q-44 88 -48 98q-20 18 -41 35l-81 81t-42 46q26 43 70 89q40 41 62 52q-7 -3 -10 -3q-2 0 -2 1q0 4 53.5 69t56.5 92t3 40q0 38 -32 38q-62 0 -71 -1q-43 -7 -44 -37q-2 -88 -32 -137l-51 -62q-21 -27 -66.5 -59
t-52.5 -28q-15 11 -47 57q-42 61 -48 108q-3 23 -127 140z" />
    <glyph glyph-name="Y" unicode="Y" horiz-adv-x="613" 
d="M100 774q21 3 54.5 -27.5t38.5 -30.5q3 0 5 3.5t3 3.5v-1q0 -21 -29 -90q-4 -9 -4 -24q0 -24 9.5 -61t9.5 -33v-1q-8 17 -10 17t-2 -27q-1 -40 -3 -61q-1 -11 -1 -22q0 -66 21 -66q6 0 15 13.5t28 13.5q13 0 39 -5.5t31 -5.5q61 6 112 52q26 23 43 71q12 37 12 61
q0 5 -1 5q-2 0 -4.5 -8t-3.5 -8v2q0 19 26 171q70 47 97 47q15 0 13 -15l-23 -245q-1 -16 -23.5 -37t-22.5 -55q0 -17 5 -41l-31 -63q-7 0 -39 -16t-39 -16q-21 0 -54.5 -26t-43.5 -46l-25 -197q-2 -15 -6 -15q-1 0 -23 19t-47 20q-19 1 -21 63q-5 112 -6 116q-9 64 -42 69
q-39 6 -63 30l-64 76q23 23 23 58q0 11 -3 37t-3 41t-35 199q15 15 29 26q33 26 58 29z" />
    <glyph glyph-name="Z" unicode="Z" horiz-adv-x="795" 
d="M60 770q-50 -45 -50 -68q0 -4 1 -7q9 -26 17 -52q13 -37 29.5 -42.5t32.5 -5.5q33 0 71 28q44 33 54 35q107 30 157 30q29 0 39 -10q15 -13 38 -13q19 0 56.5 12.5t49.5 12.5q28 0 28 -53q0 -28 -6.5 -57.5t-12.5 -31.5q-38 -9 -106 -55.5t-76 -68.5q-16 -45 -60 -77
q-27 -19 -74 -39q-38 -16 -41 -22t-58.5 -58t-62.5 -75q-5 -17 -35 -38.5t-30 -36.5q0 -6 4 -14q13 -26 45 -42q26 -13 41 -10l103 18q97 20 128 40q23 15 70 15q43 0 98 -12q46 -10 61 -18t51.5 -19.5t51.5 -11.5q70 0 56 -1q42 3 50 21q15 37 15 61q0 19 -12 20
q-61 6 -73 8q-63 11 -103 41q-22 17 -59 17q-22 0 -57 -7.5t-42 -7.5q-15 0 -78 9q-52 8 -52 24q0 6 14 11q24 8 87 63q72 62 84 69q127 79 181 136q31 33 59 86q31 58 31 90v67q-3 33 -21 39q-44 14 -70 14q-19 0 -36 -5q-27 -8 -123 -7q-77 1 -119 4q-32 3 -346 -6z" />
    <glyph glyph-name="bracketleft" unicode="[" horiz-adv-x="237" 
d="M61 762q-3 0 -9 9.5t-8 8.5q-44 -18 -44 -90q0 -34 8 -75q10 -52 12 -72q1 -14 1 -31t-3 -69q-4 -43 -2 -70l8 -76q1 -21 1 -111q-1 -69 7 -112q13 -74 27 -74l182 24q-18 81 -41 81l-29.5 -9.5t-48.5 -9.5q-29 0 -39 21q-13 28 -13 85q0 45 8 106t8 57l10 222l-19 113
l136 -18l25 44q-29 12 -80 43q-9 7 -26 7q-21 0 -48 -10q-16 6 -23 6z" />
    <glyph glyph-name="backslash" unicode="\" horiz-adv-x="288" 
d="M29 712q-6 0 -24 -4q-9 7 -22 9q-17 -17 -17 -47q0 -25 12 -53q13 -31 36 -65q30 -45 39 -62q14 -26 32 -78q19 -55 31 -80l37 -66q13 -26 45 -105q24 -59 49 -98q42 -63 54 -58l-11 59l-235 633z" />
    <glyph glyph-name="bracketright" unicode="]" horiz-adv-x="295" 
d="M206 768q3 0 8.5 9.5t8.5 7.5q43 -17 43 -90q0 -34 -7 -74q-10 -53 -12 -72q-2 -15 -2 -31q0 -17 4 -69q3 -43 1 -70l-7 -76q-2 -22 -1 -112q0 -68 -7 -111q-14 -74 -27 -74l-183 24q19 81 42 81l29 -10t49 -10q29 0 38 22q13 28 13 85q0 44 -7.5 105.5t-7.5 57.5
l-10 222l18 113l-136 -18l-25 44q29 12 80 43q10 7 27 7q21 0 47 -10q17 6 24 6z" />
    <glyph glyph-name="asciicircum" unicode="^" horiz-adv-x="304" 
d="M37 632l32 78q0 2 78 63q69 -14 69 -16t21.5 -42t21.5 -44t9 -42l-87 34l-31 32l-61 -55q-6 -2 -52 -8z" />
    <glyph glyph-name="underscore" unicode="_" horiz-adv-x="610" 
d="M584 18q2 5 5 19q0 2 7.5 6.5t6.5 6.5q-13 35 -71 36q-27 1 -60 -5q-42 -7 -58 -8q-23 -2 -68 2t-68 3l-60 -5q-60 3 -179 -3q-35 -6 -40 -7q-19 -5 -20 -14l47 -10l539 -35z" />
    <glyph glyph-name="grave" unicode="`" horiz-adv-x="183" 
d="M85 750q-5 -3 -18 -12q-5 -1 -14 -6q-24 -20 -24 -31q0 -7 12 -10q9 -3 18 -5q5 -3 8 -13t7 -13l13 -7q4 -4 12 -17q6 -9 16 -12q17 -3 27 3l4 15q-8 23 -20 51l-26 63z" />
    <glyph glyph-name="a" unicode="a" horiz-adv-x="531" 
d="M118 9q14 -2 38.5 22t27.5 24l6 -5v1q0 16 -21 70q-2 8 -2 20q0 18 6.5 47t6.5 27v0q-5 -10 -6 -10q-12 0 -23 112q-3 24 30 70l28 40q-7 -2 -5 -2q-6 0 25 36t39 35q25 -3 50 -45q34 -55 36 -57q15 -15 15 -46q0 -34 -37 -16q-57 -49 -155 -54q-9 -6 -9 -12
q0 -4 3.5 -9.5t3.5 -8.5q0 -1 -1.5 -7.5t-1.5 -10.5q0 -10 12 -7q28 3 92 16q83 25 95 25q19 0 17 -16q56 -40 56 -149q0 -28 -3 -51q39 -17 62 -17q21 0 20 17l-14 252q-1 12 -36.5 68t-35.5 98q0 11 1 21l5 39q-5 0 -15 3t-15 3q-52 0 -59 17l-91 66q-3 2 -7 2
q-12 0 -43 -42t-50 -43q-40 -2 -66 -65l-29 -78q-15 -35 -43 -70q38 -42 38 -105q0 -11 -22 -166l28 -18q31 -18 49 -21z" />
    <glyph glyph-name="b" unicode="b" horiz-adv-x="423" 
d="M209 15q-89 12 -91 8h-21q-4 34 -46 71v65q0 5 5 11.5t5 11.5q0 1 -10 12v41q0 2 4 14.5t4 14.5q0 18 -17 28.5t-17 27.5q0 7 16 16v141q-37 26 -37 101q0 10 7 20l14 20q35 -1 83 1q55 3 75 3q35 0 70 -4l21 -4t20 3v-34h26q1 -13 5 -26q7 6 10 16q14 -14 24 -36
q13 -33 17 -39t24 -27q13 -14 13 -30q0 -7 -5.5 -17.5t-5.5 -17.5q0 -4 5.5 -9t5.5 -8q0 -18 -16.5 -41.5t-16.5 -40.5q-23 -4 -23 -22q0 -23 32 -50q2 -18 9 -57q2 -5 11.5 -19t9.5 -23q0 -12 -13 -23q0 -69 -45 -83q-39 -12 -152 -15zM121 493q3 -22 7 -72q1 -9 -3 -29.5
t-4 -27.5q0 -14 11.5 -20t37.5 -6q34 0 54 10.5t41 29.5q26 25 23 41q-11 28 -26 72q-10 32 -40 32q-5 0 -10 -3q-22 -8 -91 -27zM126 230q-9 -78 -4 -94q4 -15 15.5 -30.5t23.5 -17.5q14 -2 50 2.5t44 10.5l30 21q21 16 21 27q0 15 -4 44t-8 32q-12 14 -25 26t-35 12
q-14 0 -33.5 -4t-74.5 -29z" />
    <glyph glyph-name="c" unicode="c" horiz-adv-x="420" 
d="M237 27l-125 55q-33 31 -43 71h-21l-39 55v86l14 5v65l25 21l1 79q45 29 67 52q29 31 54 85l99 6q22 -30 67 -83q19 -6 39.5 -45t36.5 -44q3 -4 3 -7q0 -5 -6.5 -8l-10.5 -5v-15h25v-101l-57 71l-11 22l-43 13l-3 15h-100l-10 -22q-1 -2 -12 -10q-6 -4 -6 -13
q0 -8 5.5 -26t5.5 -26q0 -11 -8 -14q29 -52 50 -141l49 -24q35 -46 113 -54q-95 -70 -139 -70q-13 0 -20 7z" />
    <glyph glyph-name="d" unicode="d" horiz-adv-x="434" 
d="M406 113q0 -69 -45 -83q-39 -12 -152 -15q-89 12 -91 8h-21q-4 34 -46 71v65q0 5 5 11.5t5 11.5q0 1 -10 12v41q0 2 4 14.5t4 14.5q0 18 -17 28.5t-17 27.5q0 7 16 16v141q-37 26 -37 101q0 10 7 20l14 20q35 -1 83 1q55 3 75 3q35 0 70 -4l21 -4t20 3v-34h26
q1 -13 5 -26q7 6 10 16q14 -14 24 -36q13 -33 17 -39t24 -27q13 -14 13 -30q0 -7 -5.5 -17.5t-5.5 -17.5q0 -4 8.5 -42t8.5 -42q0 -10 4.5 -36t4.5 -40q0 -27 -14 -43q10 -36 10 -48q0 -27 -18 -42zM121 493q3 -22 7 -72q3 -14 5 -28q5 -27 5 -50q0 -40 -13 -72
q-1 -49 8 -86q8 -33 17 -38q14 -8 45 -17q36 -10 57 -10q14 0 19 4q22 16 29 39.5t4 75.5q-20 44 -20 109q0 19 2 46q2 22 2 25q-11 28 -26 72q-10 32 -40 32q-5 0 -10 -3q-22 -8 -91 -27z" />
    <glyph glyph-name="e" unicode="e" horiz-adv-x="461" 
d="M157 605q-10 1 -26 10t-28 9q-6 0 -12.5 -7.5t-11.5 -8.5q-79 -14 -79 -70q0 -27 14 -58q18 -41 22 -56q6 -23 5 -64q-1 -46 2 -65v-63q3 -17 2 -88q-1 -53 13 -86.5t17 -38.5q12 -19 31 -19q33 0 73 14q51 17 73 21h76l39 12.5t39 6.5q4 0 10.5 -3.5t10.5 -3.5
q7 0 18 3.5t15 3.5l3 15q-61 29 -76 35q-38 14 -81 17q-78 6 -124 42l-19 10.5t-10 13.5q0 32 39 45l75 18q113 28 160 28q1 3 4 7t3 7q0 31 -56 31q-13 0 -32.5 -7t-31.5 -7q-7 0 -16 6.5t-13 7.5q-11 4 -34.5 2t-35.5 4q-37 17 -37 66q0 13 10 30t12 27q0 2 1 22
q0 12 6 18q16 15 41 21q47 11 48 11q61 21 120 21q5 0 12 1.5t10 1.5l7 14q-18 3 -44 17t-44 17q-117 -6 -105 -6q-51 0 -95 15z" />
    <glyph glyph-name="f" unicode="f" horiz-adv-x="444" 
d="M147 108q0 5 3 38t3 41q0 32 39 45l75 18q113 28 160 28q1 3 4 7t3 7q0 31 -56 31q-13 0 -32.5 -7t-31.5 -7q-7 0 -16 6.5t-13 7.5q-11 4 -34.5 2t-35.5 4q-37 17 -37 66q0 13 10 30t12 27q0 2 1 22q0 12 6 18q16 15 41 21q47 11 48 11q61 21 120 21q5 0 12 1.5t10 1.5
l7 14q-18 3 -44 17t-44 17q-117 -6 -105 -6q-51 0 -95 15q-10 1 -26 10t-28 9q-6 0 -12.5 -7.5t-11.5 -8.5q-79 -14 -79 -70q0 -27 14 -58q18 -41 22 -56q6 -23 5 -64q-1 -46 2 -65v-63q3 -17 2 -88q-1 -53 13 -86q10 -24 48 -58q12 16 20 32q20 40 21 76z" />
    <glyph glyph-name="g" unicode="g" horiz-adv-x="556" 
d="M368 160q2 5 -19.5 13t-26.5 8h-1q4 -2 15 -6v0q-59 22 -71 22q-6 0 -6 7q0 10 11 31l34 13q143 3 143 -21q0 -5 -7 -11q-3 -2 13 -54l18 -55v-67q-5 0 -12.5 4.5t-12.5 4.5q-35 0 -51 -34l-134 -10q-23 -2 -67 23l-63 37l-49 19q-27 11 -36 31q-12 26 -18 95
q-5 57 -33 87q42 42 42 104q0 7 -6 15q-9 10 -11 14q67 46 77 141q12 10 26 10q8 0 24.5 -4.5t24.5 -4.5q11 0 21 5q19 11 19 16q0 4 -7 5l43.5 21t52.5 10q39 0 91.5 -37.5t91.5 -37.5q18 0 24 -23l6 -43q2 -15 21 -39.5t19 -35.5q0 -9 -6 -16l-30 -37q-2 -3 -42 -4t-41 -5
q3 83 -32 97q-11 4 -49 7q-43 9 -45 9t-51 -5q11 -27 11 -45q0 -14 -8 -17t-16 -3q-28 0 -45 14q-1 1 -3 1q-8 0 -21 -12t-18 -23q-5 -15 -12.5 -49t-5.5 -43q3 -16 13 -50q12 -40 17 -45q20 -15 53 -49q10 -13 35 -25.5t46 -12.5q6 0 12 1.5t29 19.5z" />
    <glyph glyph-name="h" unicode="h" horiz-adv-x="474" 
d="M361 109q2 -6 9 -62q6 -48 12 -48q8 0 21.5 21.5t16.5 35.5q8 41 17 131q17 174 17 254q0 7 8 57.5t8 72.5q0 24 -7 26q-46 17 -49 17q-11 0 -19 -9l-31 -28q-21 -19 -21 -34q0 -7 12.5 -44.5t18.5 -48.5q1 -3 1 -7q0 -19 -22 -59l-63 -8q2 0 -34 -6.5t-57 -6.5
q-16 0 -23 4l-35 16.5t-15 29.5q12 101 25 119q1 2 1 6q0 18 -26 67l-59 -11q-51 -36 -47 -67q12 -82 17 -102q2 -37 9 -107q1 -41 8 -127q0 -47 9 -118q7 -21 24 -46.5t26 -25.5q7 0 8 35v45q0 6 1 8q3 10 7 52.5t1 53.5q-4 15 4 99q41 14 63 14q8 0 13 -2q25 -12 57 -12
q39 0 77 16l13 -45z" />
    <glyph glyph-name="i" unicode="i" horiz-adv-x="190" 
d="M154 590q-30 4 -44 4q-5 0 -15.5 7.5t-15.5 6.5q-79 -14 -79 -70q0 -27 14 -58q18 -41 21.5 -54.5t3.5 -26.5q0 -15 -5.5 -45t-5.5 -45q0 -9 2 -18l13 -59q3 -17 2 -88q-1 -53 13 -86.5t17 -38.5q12 -19 31 -19l23 45q27 209 27 232l30 295z" />
    <glyph glyph-name="j" unicode="j" horiz-adv-x="444" 
d="M399 597q-30 5 -43 5q-5 0 -15.5 7t-15.5 7q-79 -14 -79 -71q0 -26 14 -58q18 -41 22 -56q2 -11 2 -24q0 -15 -5 -45t-5 -46q0 -9 1 -18l14 -59q2 -17 -24 -83l-26 -63q-30 0 -56 6q-60 12 -83 44q-15 54 -43 54q-16 0 -30.5 -17.5t-11.5 -26.5q5 -25 9 -50
q14 -45 60 -64q36 -16 99 -24q35 -4 73 -4q27 -1 56.5 1t27.5 2l34 39q28 209 28 231l30 295z" />
    <glyph glyph-name="k" unicode="k" horiz-adv-x="437" 
d="M154 590q-30 4 -44 4q-5 0 -15.5 7.5t-15.5 6.5q-79 -14 -79 -70q0 -27 14 -58q18 -41 21.5 -54.5t3.5 -26.5q0 -15 -5.5 -45t-5.5 -45q0 -9 2 -18l13 -59q3 -17 2 -88q-1 -53 13 -86.5t17 -38.5q12 -19 31 -19l23 45q29 115 25 194q8 -2 46 -36q16 -46 66 -88
q38 -32 44 -32l97 -83l26 27q-80 155 -81 153l-37 25l-21 16l-34 20q-1 -2 -53 68l113 87l129 146l-85 45q-30 1 -30 -24q0 -13 9 -32l-97 -74q-16 -12 -29 -31.5t-10 -19.5q-1 0 -53 -21q0 -2 28 142l4 45z" />
    <glyph glyph-name="l" unicode="l" horiz-adv-x="387" 
d="M154 590q-23 4 -44 4q-5 0 -15.5 7.5t-15.5 6.5q-79 -14 -79 -70q0 -27 14 -58q18 -41 21.5 -54.5t3.5 -26.5q0 -15 -5.5 -45t-5.5 -45q0 -9 2 -18l13 -59q3 -17 2 -88q-1 -53 13 -86q24 -58 75 -58h36l245 16q9 26 -20 50q-25 20 -33 24q-21 11 -52 11q-20 -22 -58 -22
q-45 0 -69 21q-34 29 -34 98q0 24 4 52.5t4 26.5l49 288z" />
    <glyph glyph-name="m" unicode="m" horiz-adv-x="511" 
d="M36 611q40 -24 78 -24q20 0 41 7q18 -45 18 -87q0 -11 -4 -27t-4 -27q0 -51 25 -105l48 -100l20 66q6 33 18 82q6 15 16 21q15 9 21 15q14 12 17 50q3 53 9 72q13 43 53 70q40 -17 114 -40q-15 -43 -16 -95t-14 -90q-2 -7 3 -33q6 -30 6 -34q0 -34 -5 -87.5t-5 -88.5
q0 -80 -1 -86q-4 -44 -30 -70q-4 17 -16 43q-4 4 -17.5 4t-18.5 3v222q-12 8 -20 20q-32 -36 -51 -69q-4 -6 -2 -17.5t-1 -17.5q-12 -13 -28 -39q-11 -43 -11 -99q-9 -3 -31 -20q-44 36 -60 87q-13 39 -13 104q0 20 -20 33q-5 3 -41 18q-3 -57 -15 -136q-13 -87 -16 -136
q-2 1 -19 19q-10 11 -23 11q-4 0 -10.5 -5t-9.5 -5q0 105 -10.5 269.5t-10.5 269.5q0 56 25 56q5 0 11 -4z" />
    <glyph glyph-name="n" unicode="n" horiz-adv-x="414" 
d="M283 624q3 -2 4.5 -11t6.5 -9t6 9t4 11q18 -17 43 -17q11 0 62 13l-3 -46q-2 -11 -18 -32q0 -42 -5 -111.5t-5 -99.5q10 -61 10 -249q-50 -14 -80 -55q-25 26 -43 74q-23 59 -34 77q-3 8 -18.5 20t-19 19t-2 25t-0.5 26.5t-14 23.5l-20 25q-32 -29 -47 -97
q-18 -79 -37 -107q6 -11 29 -40q-3 3 -5 3v1q0 2 -3 5h-31v-62l-21 -20q-12 8 -42 20q33 140 33 204q0 27 -5 81t-5 82q0 63 19 196q12 12 27 12q8 0 27 -5.5t30 -6.5l21 21q16 -7 52 -21q-21 -50 -21 -77q0 -113 116 -168q0 108 -11 286z" />
    <glyph glyph-name="o" unicode="o" horiz-adv-x="554" 
d="M301 629q39 0 91.5 -37.5t91.5 -37.5q18 0 24 -23l6 -43q2 -16 18 -43.5t16 -47.5v-83q0 -41 -39.5 -97t-39.5 -90q0 -10 2 -20v-67q-5 0 -12.5 4.5t-12.5 4.5q-35 0 -51 -34l-134 -10q-23 -2 -67 23l-63 37l-49 19q-27 11 -36 31q-12 26 -18 95q-5 57 -33 87
q42 42 42 104q0 7 -6 15q-9 10 -11 14q67 46 77 141q12 10 26 10q8 0 24.5 -4.5t24.5 -4.5q11 0 21 5q19 11 19 16q0 4 -7 5l43.5 21t52.5 10zM354 455q-43 9 -45 9t-51 -5q11 -27 11 -45q0 -14 -8 -17t-16 -3q-28 0 -45 14q-1 1 -3 1q-8 0 -21 -12t-18 -23
q-5 -15 -12.5 -49t-5.5 -43q3 -16 13 -50q12 -40 17 -45q20 -15 53 -49q10 -13 35 -25.5t46 -12.5q6 0 11 1q28 7 74 70q52 70 53 126q2 56 -14 105q-13 41 -24.5 45.5t-49.5 7.5z" />
    <glyph glyph-name="p" unicode="p" horiz-adv-x="414" 
d="M158 232q-10 0 -19 -9l-15 -16v-66q0 -4 -5 -10t-5 -10t5 -10t5 -10v-66q-6 -3 -10 -10h-21q-5 34 -46 71v65q0 5 5 11.5t5 11.5q0 1 -10 13v40h20q0 2 2.5 5t2.5 5q0 18 -25.5 38t-25.5 38q0 6 15 15v141q-36 26 -36 101q0 11 7 20.5l14 19.5q35 -1 83 1q55 3 75 3
q35 0 69 -4l22 -4t20 3v-34h25q1 -13 6 -25q7 5 10 15q14 -14 23 -36q14 -33 17.5 -39t23.5 -27q13 -14 13 -29q0 -8 -5 -18t-5 -18q0 -3 5 -8.5t5 -8.5q0 -18 -16.5 -41t-16.5 -41q-69 -10 -69 -59q0 -6 -26 -10l-34 -4zM117 495q2 -22 7 -71q1 -10 -3 -30t-4 -27
q0 -15 9 -20q14 -7 40 -7q34 0 52 9q22 12 42 31q26 25 23 41l-25 72q-10 32 -40 32q-5 0 -11 -2q-21 -9 -90 -28z" />
    <glyph glyph-name="q" unicode="q" horiz-adv-x="548" 
d="M301 629q39 0 91.5 -37.5t91.5 -37.5q18 0 24 -23l6 -43q2 -16 18 -43.5t16 -47.5v-83q0 -41 -34.5 -90.5t-34.5 -81.5q0 -11 3 -22l68 -101q-13 -5 -27 -11q-10 -5 -13 -5q-4 0 -64 46q-5 3 -11 3q-22 0 -40 -37l-134 -10q-23 -2 -67 23l-63 37l-49 19q-27 11 -36 31
q-12 26 -18 95q-5 57 -33 87q42 42 42 104q0 7 -6 15q-9 10 -11 14q67 46 77 141q12 10 26 10q8 0 24.5 -4.5t24.5 -4.5q11 0 21 5q19 11 19 16q0 4 -7 5l43.5 21t52.5 10zM354 455q-43 9 -45 9t-51 -5q11 -27 11 -45q0 -14 -8 -17t-16 -3q-28 0 -45 14q-1 1 -3 1
q-8 0 -21 -12t-18 -23q-5 -15 -12.5 -49t-5.5 -43q3 -16 13 -50q12 -40 17 -45q20 -15 53 -49q10 -13 35 -25.5t46 -12.5q6 0 10.5 1t22 18t18.5 17q-71 62 -71 74q0 3 5 3q7 0 21 -6q14 14 30 14q28 0 58 -34q3 -2 23.5 41.5t20.5 68.5q2 56 -14 105q-13 41 -24.5 45.5
t-49.5 7.5z" />
    <glyph glyph-name="r" unicode="r" horiz-adv-x="412" 
d="M109 187v-66q0 -4 -5 -10t-5 -10q0 -5 5 -10.5t5 -9.5v-66q-6 -4 -10 -10h-21q-4 34 -46 71v65q0 5 5 11.5t5 11.5q0 1 -10 12v41h21q0 2 2.5 5t2.5 5q0 18 -26 38t-26 37q0 7 16 16v141q-37 26 -37 101q0 10 7 20l14 20q35 -1 83 1q55 3 75 3q35 0 70 -4l21 -4t20 3v-34
h26q1 -13 5 -26q7 6 10 16q14 -14 24 -36q13 -33 17 -39t24 -27q13 -14 13 -30q0 -7 -5.5 -17.5t-5.5 -17.5q0 -4 5.5 -9t5.5 -8q0 -18 -16.5 -41.5t-16.5 -40.5q-69 -10 -69 -59q0 -5 -24.5 -12t-23.5 -13q1 -16 25 -50q26 -39 47 -42q44 -61 53 -101q-1 0 -5.5 -2t-8.5 -2
q-12 0 -26 11q-12 -9 -23 -9q-12 0 -23.5 13.5l-22.5 26.5q-10 9 -22.5 30.5t-18.5 25.5q-3 33 -54 61q-47 26 -56 20zM102 475q3 -22 7 -72q1 -9 -3 -29.5t-4 -27.5q0 -14 11.5 -20t37.5 -6q34 0 54 10.5t41 29.5q26 25 23 41q-11 28 -26 72q-10 32 -40 32q-5 0 -10 -3
q-22 -8 -91 -27z" />
    <glyph glyph-name="s" unicode="s" horiz-adv-x="451" 
d="M205 612l79 12q5 -18 63 -74t73 -59l3 -5l-17 -9v-10h25v-68q-29 22 -37 29q-23 20 -30 34l-42 9l-3 10h-98q-8 -13 -27 -31q5 -11 11 -35l-9 -9l32.5 -40t23.5 -42l42 -14q52 -61 102 -61l10 -34l16 -7l18 -6l5 -1v-68q-53 -57 -101 -82l-116 -51l-21 8l-11 -8h-45
l-28 34h-59q-16 11 -40 58t-24 67l1 5h35l14 -34h45l32 -24l16 11q7 -2 57 -39h45l4 14l63 41v44q-16 22 -91 75h-94q-32 21 -42 48h-21l-39 38v58l14 3v44l14 28l11 40q101 44 141 101z" />
    <glyph glyph-name="t" unicode="t" horiz-adv-x="419" 
d="M359 596q-209 5 -246 0q-13 -2 -62 -4q-34 0 -41 -7.5t-7 -18.5q0 -19 15 -27q23 -12 51 -9q17 2 29.5 -19t12.5 -44q0 -8 -2 -14q-3 -10 0 -18q6 -20 10 -40q8 -45 14 -88q2 -6 1 -18q0 -4 -1 -8q-2 -11 2 -44q6 -43 7 -71q1 -21 -2 -63q-1 -26 4 -43l18 -63q34 0 40 15
q2 4 3 24q0 11 14 13q34 4 34 17q0 5 -3 40q-5 63 -15 147q-1 57 -5 143q-5 46 -5 88q0 -1 -2 10q-1 8 0 13q2 8 10 12q15 7 56 20q46 15 65 17q24 2 68 20q30 12 30 16q0 5 -7 11.5t-12 6.5q-4 0 -8 -2q-13 -6 -66 -12z" />
    <glyph glyph-name="u" unicode="u" horiz-adv-x="558" 
d="M103 599q17 2 43.5 -21.5t31.5 -23.5q2 0 3.5 2.5t2.5 2.5v-1q0 -16 -23 -70q-3 -7 -3 -19q0 -18 7.5 -47t7.5 -26v0q-6 10 -7 10q-14 0 -26 -111q-2 -18 14 -52q4 -9 27 -50q1 -9 3 -17q-2 1 -3 2v0q88 -51 102 -49q29 3 59 27l43.5 40.5t39.5 81.5q13 49 13 75v3
q2 0 -4 -9q-1 1 -1 3q0 21 30 211q43 16 69 16q23 0 23 -16l-2 -252q-1 -40 -40 -96.5t-39 -90.5q0 -10 2 -20v-67q-5 0 -12.5 4.5t-12.5 4.5q-35 0 -51 -34l-134 -10q-23 -2 -67 23l-63 37l-49 19q-27 11 -36 31q-12 26 -18 95q-5 57 -33 87q43 42 43 104q0 12 -25 165
q16 10 30 17q35 19 55 21z" />
    <glyph glyph-name="v" unicode="v" horiz-adv-x="572" 
d="M103 599q17 2 43.5 -21.5t31.5 -23.5q2 0 3.5 2.5t2.5 2.5v-1q0 -16 -23 -70q-3 -7 -3 -19q0 -18 7.5 -47t7.5 -26v0q-6 10 -7 10q-14 0 -26 -111q-3 -24 33 -70l32 -39q-1 0 -3 1l-2 1q-8 0 27 -35.5t44 -34.5q28 3 56 44q37 54 39 56q24 21 44 82q17 50 17 67q0 1 -1 1
q-1 -4 -3 -9q-1 0 -1 1q0 10 41 201q44 16 69 16q24 0 23 -16l-16 -250q-1 -12 -40.5 -67t-39.5 -97q0 -10 2 -21l5 -38q-6 0 -17 -3t-16 -3q-59 0 -67 -16l-100 -66q-4 -2 -9 -2q-13 0 -47.5 41.5t-55.5 42.5q-45 2 -74 65l-33 77q-16 34 -47 68q43 42 43 104q0 12 -25 165
q16 10 30 17q35 19 55 21z" />
    <glyph glyph-name="w" unicode="w" horiz-adv-x="575" 
d="M103 599q17 2 43.5 -21.5t31.5 -23.5q2 0 3.5 2.5t2.5 2.5v-1q0 -16 -23 -70q-3 -7 -3 -19q0 -18 7.5 -47t7.5 -26v0q-6 10 -7 10q-14 0 -26 -111q-3 -24 33 -70l32 -39q-4 0 -4 3q0 1 15.5 25t15.5 46q0 15 -6 29q38 95 50 96q2 0 15.5 3t21.5 3q26 0 26 -25
q0 -19 -15 -53l20.5 -64.5t17.5 -31.5q3 0 4 1q24 21 44 82q17 50 17 67q0 1 -1 1q-1 -4 -3 -9q-1 0 -1 1q0 10 41 201q44 16 69 16q24 0 23 -16l-16 -250q-1 -12 -35 -60.5t-34 -88.5q0 -11 2 -22l16 -85q-5 0 -20.5 2t-21.5 2q-17 0 -41.5 -14t-31.5 -29l-95 162
q-2 3 -5 3q-9 0 -55 -77.5t-68 -76.5q-24 2 -44 48l-26 72l-33 77q-16 34 -47 68q43 42 43 104q0 12 -25 165q16 10 30 17q35 19 55 21z" />
    <glyph glyph-name="x" unicode="x" horiz-adv-x="645" 
d="M154 609q-20 10 -36 10q-19 0 -24 -16l-13 -26q-7 -14 -7 -23q0 -16 22 -32q70 -53 93 -108q7 -18 24 -36t17 -23q0 -4 -5 -9t-6 -29q-1 -27 -19 -53l-54 -80q-30 -47 -31.5 -59t-18.5 -28.5t-18.5 -21.5t-20 -18.5t-18.5 -21.5q0 -4 4 -8q24 -20 54 -20q7 0 11 2
q69 44 76 68q6 21 27 67q26 54 39 61q10 5 44 42q31 33 40 35q30 4 30 -6q0 -5 -7 -11t-7 -4q4 -9 45 -27t51 -34q26 -3 26 -22q0 -7 -4 -20.5t-4 -18.5t3 -8q13 -10 40 -47q20 -28 34 -28q3 0 8 1.5t8 1.5q17 0 30 -25.5t15 -24.5q10 10 21 19q6 6 3 23q-2 15 -33 75
q-35 69 -38 77q-10 25 -76 74q-60 44 -55 52q21 34 56 69q32 32 50 41q-6 -3 -8 -3t-2 1q0 3 42.5 54t45.5 72t3 31q0 30 -26 30q-49 0 -57 -1q-35 -5 -35 -29q-2 -68 -26 -107l-41 -48q-16 -21 -52.5 -46t-42.5 -22q-12 8 -38 44q-33 48 -38 85q-2 18 -101 109z" />
    <glyph glyph-name="y" unicode="y" horiz-adv-x="515" 
d="M103 599q17 2 43.5 -21.5t31.5 -23.5q2 0 3.5 2.5t2.5 2.5v-1q0 -16 -23 -70q-3 -7 -3 -19q0 -18 7.5 -47t7.5 -26v0q-3 6 -8 13q-2 0 -2 -22q0 -31 -2 -47q-3 -25 2 -46.5t14 -21.5q5 0 12 10.5t22 10.5q11 0 31.5 -5t24.5 -4q49 5 90 40q21 19 34 56q10 29 10 47
q0 4 -1 4q2 0 -6 -13q0 1 -1 2q0 15 21 134q56 37 78 37q12 0 10 -12l-18 -191q-1 -13 -19 -29.5t-18 -42.5q0 -14 4 -32l-25 -49q-5 0 -31 -12.5t-31 -12.5q-17 0 -44 -20.5t-34 -35.5l-20 -154q-2 -12 -6 -12l-18 15t-37 16q-15 1 -17 49q-4 87 -5 90q-7 50 -33 54
q-31 5 -51 24l-51 59q18 18 18 45q0 8 -2 28.5t-2 32t-28 155.5q11 12 22 20q27 21 47 23z" />
    <glyph glyph-name="z" unicode="z" horiz-adv-x="671" 
d="M71 603q-40 -35 -40 -54q0 -2 1 -5l14 -41q10 -28 23 -32.5t26 -4.5q26 0 57 22q35 25 43 28q86 23 126 23q18 0 33 -9t28 -9q16 0 45.5 9.5t39.5 9.5q23 0 23 -41q0 -22 -5.5 -45t-10.5 -24q-30 -8 -84.5 -44t-60.5 -53q-13 -35 -48 -60q-22 -15 -59 -31
q-31 -12 -33 -16.5t-46.5 -45t-50.5 -58.5q-4 -14 -28 -31t-24 -28q0 -5 3 -11q11 -21 36 -33q21 -10 33 -7l82 14q78 15 103 31q18 12 56 12q34 0 78 -10q37 -8 49 -14t41.5 -15t40.5 -9q57 0 45 -1q34 2 40 17q12 29 12 47q0 15 -9 16q-49 4 -59 6q-50 9 -82 32
q-18 13 -47 13q-18 0 -46 -5.5t-34 -5.5q-12 0 -62 7q-42 5 -42 18q0 5 12 9q18 6 69 49q58 48 67 54q102 61 145 106q25 25 48.5 68.5t23.5 68.5v52q-2 26 -17 31q-35 11 -56 11q-15 0 -28 -4q-36 -10 -122 -10q-57 0 -72 8q-30 16 -95 16q-78 0 -182 -21z" />
    <glyph glyph-name="braceleft" unicode="{" horiz-adv-x="278" 
d="M243 554q-80 -47 -81.5 -47t-68.5 -126q-6 -118 -3 -118q1 0 40 -47.5t43 -47.5q6 0 90 22l-59 124l-31 55q28 44 59 98q2 9 11 87z" />
    <glyph glyph-name="bar" unicode="|" horiz-adv-x="141" 
d="M84 756q-16 6 -23 6q-3 0 -9 9.5t-8 8.5q-44 -18 -44 -90q0 -34 8 -75q10 -52 12 -72q1 -14 1 -31t-3 -69q-4 -43 -2 -70l8 -76q1 -21 1 -111q-1 -69 7 -112q13 -74 27 -74l12 58l32 675z" />
    <glyph glyph-name="braceright" unicode="}" horiz-adv-x="323" 
d="M134 545q79 -48 81 -47.5t69 -125.5q6 -118 3 -118q-1 0 -40.5 -47.5t-42.5 -47.5q-6 0 -90 22l59 124l31 55q-28 44 -59 98q-3 9 -11 87z" />
    <glyph glyph-name="asciitilde" unicode="~" horiz-adv-x="388" 
d="M80 408l-17 -24l11 -24l58 -9l28 27l26 -28l46 28l70 -13l44 7l26 22l-23 20l-41 1l-55 1q-35 48 -38 46l-58 -40z" />
    <glyph glyph-name="dagger" unicode="&#x2020;" 
d="M50 0v800h700v-800h-700zM700 50v700h-600v-700h600z" />
    <glyph glyph-name="cent" unicode="&#xa2;" 
d="M50 0v800h700v-800h-700zM700 50v700h-600v-700h600z" />
    <glyph glyph-name="sterling" unicode="&#xa3;" 
d="M50 0v800h700v-800h-700zM700 50v700h-600v-700h600z" />
    <glyph glyph-name="section" unicode="&#xa7;" 
d="M50 0v800h700v-800h-700zM700 50v700h-600v-700h600z" />
    <glyph glyph-name="bullet" unicode="&#x2022;" 
d="M50 0v800h700v-800h-700zM700 50v700h-600v-700h600z" />
    <glyph glyph-name="paragraph" unicode="&#xb6;" 
d="M50 0v800h700v-800h-700zM700 50v700h-600v-700h600z" />
    <glyph glyph-name="germandbls" unicode="&#xdf;" 
d="M50 0v800h700v-800h-700zM700 50v700h-600v-700h600z" />
    <glyph glyph-name="acute" unicode="&#xb4;" 
d="M50 0v800h700v-800h-700zM700 50v700h-600v-700h600z" />
    <glyph glyph-name="dieresis" unicode="&#xa8;" 
d="M50 0v800h700v-800h-700zM700 50v700h-600v-700h600z" />
    <glyph glyph-name="AE" unicode="&#xc6;" 
d="M50 0v800h700v-800h-700zM700 50v700h-600v-700h600z" />
    <glyph glyph-name="Oslash" unicode="&#xd8;" 
d="M50 0v800h700v-800h-700zM700 50v700h-600v-700h600z" />
    <glyph glyph-name="yen" unicode="&#xa5;" 
d="M50 0v800h700v-800h-700zM700 50v700h-600v-700h600z" />
    <glyph glyph-name="ordfeminine" unicode="&#xaa;" 
d="M50 0v800h700v-800h-700zM700 50v700h-600v-700h600z" />
    <glyph glyph-name="ordmasculine" unicode="&#xba;" 
d="M50 0v800h700v-800h-700zM700 50v700h-600v-700h600z" />
    <glyph glyph-name="ae" unicode="&#xe6;" 
d="M50 0v800h700v-800h-700zM700 50v700h-600v-700h600z" />
    <glyph glyph-name="oslash" unicode="&#xf8;" 
d="M50 0v800h700v-800h-700zM700 50v700h-600v-700h600z" />
    <glyph glyph-name="questiondown" unicode="&#xbf;" 
d="M50 0v800h700v-800h-700zM700 50v700h-600v-700h600z" />
    <glyph glyph-name="exclamdown" unicode="&#xa1;" 
d="M50 0v800h700v-800h-700zM700 50v700h-600v-700h600z" />
    <glyph glyph-name="florin" unicode="&#x192;" 
d="M50 0v800h700v-800h-700zM700 50v700h-600v-700h600z" />
    <glyph glyph-name="guillemotleft" unicode="&#xab;" 
d="M50 0v800h700v-800h-700zM700 50v700h-600v-700h600z" />
    <glyph glyph-name="guillemotright" unicode="&#xbb;" 
d="M50 0v800h700v-800h-700zM700 50v700h-600v-700h600z" />
    <glyph glyph-name="ellipsis" unicode="&#x2026;" 
d="M50 0v800h700v-800h-700zM700 50v700h-600v-700h600z" />
    <glyph glyph-name="OE" unicode="&#x152;" 
d="M50 0v800h700v-800h-700zM700 50v700h-600v-700h600z" />
    <glyph glyph-name="oe" unicode="&#x153;" 
d="M50 0v800h700v-800h-700zM700 50v700h-600v-700h600z" />
    <glyph glyph-name="endash" unicode="&#x2013;" 
d="M50 0v800h700v-800h-700zM700 50v700h-600v-700h600z" />
    <glyph glyph-name="emdash" unicode="&#x2014;" 
d="M50 0v800h700v-800h-700zM700 50v700h-600v-700h600z" />
    <glyph glyph-name="quotedblleft" unicode="&#x201c;" 
d="M50 0v800h700v-800h-700zM700 50v700h-600v-700h600z" />
    <glyph glyph-name="quotedblright" unicode="&#x201d;" 
d="M50 0v800h700v-800h-700zM700 50v700h-600v-700h600z" />
    <glyph glyph-name="quoteleft" unicode="&#x2018;" horiz-adv-x="186" 
d="M50 661l67 -5q27 15 26 21q0 1 4.5 7t4.5 11q0 9 -17 18q-37 20 -37 34q0 8 11.5 18t13.5 14q11 22 36 55q11 15 11 13q0 10 -30 10q-19 0 -32 -13q-23 -23 -41 -62q-2 -4 -22 -39q-12 -21 -12 -33q0 -6 2 -11q9 -22 15 -38zM50 661l67 -5q27 15 26 21q0 1 4.5 7t4.5 11
q0 9 -17 18q-37 20 -37 34q0 8 11.5 18t13.5 14q11 22 36 55q11 15 11 13q0 10 -30 10q-19 0 -32 -13q-23 -23 -41 -62q-2 -4 -22 -39q-12 -21 -12 -33q0 -6 2 -11q9 -22 15 -38z" />
    <glyph glyph-name="quoteright" unicode="&#x2019;" horiz-adv-x="180" 
d="M143 652l-67 -5q-27 16 -26 21q0 1 -4.5 7t-4.5 11q0 9 17 18q37 20 37 34q0 8 -10 17q-13 11 -15 15q-11 22 -36 55q-11 15 -11 13q0 10 30 10q19 0 32 -13q23 -23 41 -62q2 -3 22 -39q12 -21 12 -33q0 -6 -2 -11q-9 -22 -15 -38zM143 652l-67 -5q-27 16 -26 21
q0 1 -4.5 7t-4.5 11q0 9 17 18q37 20 37 34q0 8 -10 17q-13 11 -15 15q-11 22 -36 55q-11 15 -11 13q0 10 30 10q19 0 32 -13q23 -23 41 -62q2 -3 22 -39q12 -21 12 -33q0 -6 -2 -11q-9 -22 -15 -38z" />
    <glyph glyph-name="fraction" unicode="&#x2044;" 
d="M50 0v800h700v-800h-700zM700 50v700h-600v-700h600z" />
    <glyph glyph-name="currency" unicode="&#xa4;" 
d="M50 0v800h700v-800h-700zM700 50v700h-600v-700h600z" />
    <glyph glyph-name="guilsinglleft" unicode="&#x2039;" horiz-adv-x="259" 
d="M201 367l-64 7q-2 0 -63 41q-4 47 -1 48l25.5 21t29 22t53.5 8l-32 -58l-28 -32q31 -10 64 -24q2 -3 16 -33z" />
    <glyph glyph-name="guilsinglright" unicode="&#x203a;" 
d="M50 0v800h700v-800h-700zM700 50v700h-600v-700h600z" />
    <glyph glyph-name="fi" unicode="&#xf001;" 
d="M50 0v800h700v-800h-700zM700 50v700h-600v-700h600z" />
    <glyph glyph-name="fl" unicode="&#xf002;" 
d="M50 0v800h700v-800h-700zM700 50v700h-600v-700h600z" />
    <glyph glyph-name="daggerdbl" unicode="&#x2021;" 
d="M50 0v800h700v-800h-700zM700 50v700h-600v-700h600z" />
    <glyph glyph-name="periodcentered" unicode="&#xb7;" 
d="M50 0v800h700v-800h-700zM700 50v700h-600v-700h600z" />
    <glyph glyph-name="periodcentered" unicode="&#x2219;" 
d="M50 0v800h700v-800h-700zM700 50v700h-600v-700h600z" />
    <glyph glyph-name="quotesinglbase" unicode="&#x201a;" horiz-adv-x="235" 
d="M160 122l-67 -2q-25 -18 -24 -24q0 -1 -3.5 -7t-3.5 -10q0 -10 19 -18q40 -16 40 -31q0 -7 -9.5 -18t-11.5 -15q-9 -23 -30 -58q-10 -17 -10 -14q0 -3 5 -5q38 -8 57.5 15.5t33.5 64.5q1 1 16 35q10 24 10 37q0 7 -3 14zM160 122l-67 -2q-25 -18 -24 -24q0 -1 -3.5 -7
t-3.5 -10q0 -10 19 -18q40 -16 40 -31q0 -7 -9.5 -18t-11.5 -15q-9 -23 -30 -58q-10 -17 -10 -14q0 -3 5 -5q38 -8 57.5 15.5t33.5 64.5q1 1 16 35q10 24 10 37q0 7 -3 14z" />
    <glyph glyph-name="quotedblbase" unicode="&#x201e;" 
d="M50 0v800h700v-800h-700zM700 50v700h-600v-700h600z" />
    <glyph glyph-name="perthousand" unicode="&#x2030;" 
d="M50 0v800h700v-800h-700zM700 50v700h-600v-700h600z" />
    <glyph glyph-name="dotlessi" unicode="&#x131;" 
d="M50 0v800h700v-800h-700zM700 50v700h-600v-700h600z" />
    <glyph glyph-name="circumflex" unicode="&#x2c6;" 
d="M50 0v800h700v-800h-700zM700 50v700h-600v-700h600z" />
    <glyph glyph-name="tilde" unicode="&#x2dc;" 
d="M50 0v800h700v-800h-700zM700 50v700h-600v-700h600z" />
    <glyph glyph-name="macron" unicode="&#xaf;" 
d="M50 0v800h700v-800h-700zM700 50v700h-600v-700h600z" />
    <glyph glyph-name="macron" unicode="&#x2c9;" 
d="M50 0v800h700v-800h-700zM700 50v700h-600v-700h600z" />
    <glyph glyph-name="breve" unicode="&#x2d8;" 
d="M50 0v800h700v-800h-700zM700 50v700h-600v-700h600z" />
    <glyph glyph-name="dotaccent" unicode="&#x2d9;" 
d="M50 0v800h700v-800h-700zM700 50v700h-600v-700h600z" />
    <glyph glyph-name="ring" unicode="&#x2da;" 
d="M50 0v800h700v-800h-700zM700 50v700h-600v-700h600z" />
    <glyph glyph-name="cedilla" unicode="&#xb8;" 
d="M50 0v800h700v-800h-700zM700 50v700h-600v-700h600z" />
    <glyph glyph-name="hungarumlaut" unicode="&#x2dd;" 
d="M50 0v800h700v-800h-700zM700 50v700h-600v-700h600z" />
    <glyph glyph-name="ogonek" unicode="&#x2db;" 
d="M50 0v800h700v-800h-700zM700 50v700h-600v-700h600z" />
    <glyph glyph-name="caron" unicode="&#x2c7;" 
d="M50 0v800h700v-800h-700zM700 50v700h-600v-700h600z" />
    <glyph glyph-name="trademark" unicode="&#x2122;" 
d="M50 0v800h700v-800h-700zM700 50v700h-600v-700h600z" />
    <glyph glyph-name="Ydieresis" unicode="&#x178;" 
d="M50 0v800h700v-800h-700zM700 50v700h-600v-700h600z" />
    <glyph glyph-name="nonbreakingspace" unicode="&#xa0;" 
d="M50 0v800h700v-800h-700zM700 50v700h-600v-700h600z" />
    <glyph glyph-name="brokenbar" unicode="&#xa6;" 
d="M50 0v800h700v-800h-700zM700 50v700h-600v-700h600z" />
    <glyph glyph-name="copyright" unicode="&#xa9;" 
d="M50 0v800h700v-800h-700zM700 50v700h-600v-700h600z" />
    <glyph glyph-name="logicalnot" unicode="&#xac;" 
d="M50 0v800h700v-800h-700zM700 50v700h-600v-700h600z" />
    <glyph glyph-name="minus" unicode="&#xad;" horiz-adv-x="396" 
d="M80 408l-17 -24l11 -24l58 -9l28 27l42 -2l43 -18l57 7l44 7l26 22l-23 20l-41 1l-70 -5q-58 5 -61.5 3.5t-60.5 1.5z" />
    <glyph glyph-name="minus" unicode="&#x2212;" horiz-adv-x="396" 
d="M80 408l-17 -24l11 -24l58 -9l28 27l42 -2l43 -18l57 7l44 7l26 22l-23 20l-41 1l-70 -5q-58 5 -61.5 3.5t-60.5 1.5z" />
    <glyph glyph-name="registered" unicode="&#xae;" 
d="M50 0v800h700v-800h-700zM700 50v700h-600v-700h600z" />
    <glyph glyph-name="degree" unicode="&#xb0;" 
d="M50 0v800h700v-800h-700zM700 50v700h-600v-700h600z" />
    <glyph glyph-name="plusminus" unicode="&#xb1;" 
d="M50 0v800h700v-800h-700zM700 50v700h-600v-700h600z" />
    <glyph glyph-name="twosuperior" unicode="&#xb2;" 
d="M50 0v800h700v-800h-700zM700 50v700h-600v-700h600z" />
    <glyph glyph-name="threesuperior" unicode="&#xb3;" 
d="M50 0v800h700v-800h-700zM700 50v700h-600v-700h600z" />
    <glyph glyph-name="mu" unicode="&#xb5;" 
d="M50 0v800h700v-800h-700zM700 50v700h-600v-700h600z" />
    <glyph glyph-name="mu" unicode="&#x3bc;" 
d="M50 0v800h700v-800h-700zM700 50v700h-600v-700h600z" />
    <glyph glyph-name="onesuperior" unicode="&#xb9;" 
d="M50 0v800h700v-800h-700zM700 50v700h-600v-700h600z" />
    <glyph glyph-name="onequarter" unicode="&#xbc;" 
d="M50 0v800h700v-800h-700zM700 50v700h-600v-700h600z" />
    <glyph glyph-name="onehalf" unicode="&#xbd;" 
d="M50 0v800h700v-800h-700zM700 50v700h-600v-700h600z" />
    <glyph glyph-name="threequarters" unicode="&#xbe;" 
d="M50 0v800h700v-800h-700zM700 50v700h-600v-700h600z" />
    <glyph glyph-name="Agrave" unicode="&#xc0;" 
d="M50 0v800h700v-800h-700zM700 50v700h-600v-700h600z" />
    <glyph glyph-name="Aacute" unicode="&#xc1;" 
d="M50 0v800h700v-800h-700zM700 50v700h-600v-700h600z" />
    <glyph glyph-name="Acircumflex" unicode="&#xc2;" 
d="M50 0v800h700v-800h-700zM700 50v700h-600v-700h600z" />
    <glyph glyph-name="Atilde" unicode="&#xc3;" 
d="M50 0v800h700v-800h-700zM700 50v700h-600v-700h600z" />
    <glyph glyph-name="Adieresis" unicode="&#xc4;" 
d="M50 0v800h700v-800h-700zM700 50v700h-600v-700h600z" />
    <glyph glyph-name="Aring" unicode="&#xc5;" 
d="M50 0v800h700v-800h-700zM700 50v700h-600v-700h600z" />
    <glyph glyph-name="Ccedilla" unicode="&#xc7;" 
d="M50 0v800h700v-800h-700zM700 50v700h-600v-700h600z" />
    <glyph glyph-name="Egrave" unicode="&#xc8;" 
d="M50 0v800h700v-800h-700zM700 50v700h-600v-700h600z" />
    <glyph glyph-name="Eacute" unicode="&#xc9;" 
d="M50 0v800h700v-800h-700zM700 50v700h-600v-700h600z" />
    <glyph glyph-name="Ecircumflex" unicode="&#xca;" 
d="M50 0v800h700v-800h-700zM700 50v700h-600v-700h600z" />
    <glyph glyph-name="Edieresis" unicode="&#xcb;" 
d="M50 0v800h700v-800h-700zM700 50v700h-600v-700h600z" />
    <glyph glyph-name="Igrave" unicode="&#xcc;" 
d="M50 0v800h700v-800h-700zM700 50v700h-600v-700h600z" />
    <glyph glyph-name="Iacute" unicode="&#xcd;" 
d="M50 0v800h700v-800h-700zM700 50v700h-600v-700h600z" />
    <glyph glyph-name="Icircumflex" unicode="&#xce;" 
d="M50 0v800h700v-800h-700zM700 50v700h-600v-700h600z" />
    <glyph glyph-name="Idieresis" unicode="&#xcf;" 
d="M50 0v800h700v-800h-700zM700 50v700h-600v-700h600z" />
    <glyph glyph-name="Ntilde" unicode="&#xd1;" 
d="M50 0v800h700v-800h-700zM700 50v700h-600v-700h600z" />
    <glyph glyph-name="Ograve" unicode="&#xd2;" 
d="M50 0v800h700v-800h-700zM700 50v700h-600v-700h600z" />
    <glyph glyph-name="Oacute" unicode="&#xd3;" 
d="M50 0v800h700v-800h-700zM700 50v700h-600v-700h600z" />
    <glyph glyph-name="Ocircumflex" unicode="&#xd4;" 
d="M50 0v800h700v-800h-700zM700 50v700h-600v-700h600z" />
    <glyph glyph-name="Otilde" unicode="&#xd5;" 
d="M50 0v800h700v-800h-700zM700 50v700h-600v-700h600z" />
    <glyph glyph-name="Odieresis" unicode="&#xd6;" 
d="M50 0v800h700v-800h-700zM700 50v700h-600v-700h600z" />
    <glyph glyph-name="multiply" unicode="&#xd7;" 
d="M50 0v800h700v-800h-700zM700 50v700h-600v-700h600z" />
    <glyph glyph-name="Ugrave" unicode="&#xd9;" 
d="M50 0v800h700v-800h-700zM700 50v700h-600v-700h600z" />
    <glyph glyph-name="Uacute" unicode="&#xda;" 
d="M50 0v800h700v-800h-700zM700 50v700h-600v-700h600z" />
    <glyph glyph-name="Ucircumflex" unicode="&#xdb;" 
d="M50 0v800h700v-800h-700zM700 50v700h-600v-700h600z" />
    <glyph glyph-name="Udieresis" unicode="&#xdc;" 
d="M50 0v800h700v-800h-700zM700 50v700h-600v-700h600z" />
    <glyph glyph-name="agrave" unicode="&#xe0;" 
d="M50 0v800h700v-800h-700zM700 50v700h-600v-700h600z" />
    <glyph glyph-name="aacute" unicode="&#xe1;" 
d="M50 0v800h700v-800h-700zM700 50v700h-600v-700h600z" />
    <glyph glyph-name="acircumflex" unicode="&#xe2;" 
d="M50 0v800h700v-800h-700zM700 50v700h-600v-700h600z" />
    <glyph glyph-name="atilde" unicode="&#xe3;" 
d="M50 0v800h700v-800h-700zM700 50v700h-600v-700h600z" />
    <glyph glyph-name="adieresis" unicode="&#xe4;" 
d="M50 0v800h700v-800h-700zM700 50v700h-600v-700h600z" />
    <glyph glyph-name="aring" unicode="&#xe5;" 
d="M50 0v800h700v-800h-700zM700 50v700h-600v-700h600z" />
    <glyph glyph-name="ccedilla" unicode="&#xe7;" 
d="M50 0v800h700v-800h-700zM700 50v700h-600v-700h600z" />
    <glyph glyph-name="egrave" unicode="&#xe8;" 
d="M50 0v800h700v-800h-700zM700 50v700h-600v-700h600z" />
    <glyph glyph-name="eacute" unicode="&#xe9;" 
d="M50 0v800h700v-800h-700zM700 50v700h-600v-700h600z" />
    <glyph glyph-name="ecircumflex" unicode="&#xea;" 
d="M50 0v800h700v-800h-700zM700 50v700h-600v-700h600z" />
    <glyph glyph-name="edieresis" unicode="&#xeb;" 
d="M50 0v800h700v-800h-700zM700 50v700h-600v-700h600z" />
    <glyph glyph-name="igrave" unicode="&#xec;" 
d="M50 0v800h700v-800h-700zM700 50v700h-600v-700h600z" />
    <glyph glyph-name="iacute" unicode="&#xed;" 
d="M50 0v800h700v-800h-700zM700 50v700h-600v-700h600z" />
    <glyph glyph-name="icircumflex" unicode="&#xee;" 
d="M50 0v800h700v-800h-700zM700 50v700h-600v-700h600z" />
    <glyph glyph-name="idieresis" unicode="&#xef;" 
d="M50 0v800h700v-800h-700zM700 50v700h-600v-700h600z" />
    <glyph glyph-name="ntilde" unicode="&#xf1;" 
d="M50 0v800h700v-800h-700zM700 50v700h-600v-700h600z" />
    <glyph glyph-name="ograve" unicode="&#xf2;" 
d="M50 0v800h700v-800h-700zM700 50v700h-600v-700h600z" />
    <glyph glyph-name="oacute" unicode="&#xf3;" 
d="M50 0v800h700v-800h-700zM700 50v700h-600v-700h600z" />
    <glyph glyph-name="ocircumflex" unicode="&#xf4;" 
d="M50 0v800h700v-800h-700zM700 50v700h-600v-700h600z" />
    <glyph glyph-name="otilde" unicode="&#xf5;" 
d="M50 0v800h700v-800h-700zM700 50v700h-600v-700h600z" />
    <glyph glyph-name="odieresis" unicode="&#xf6;" 
d="M50 0v800h700v-800h-700zM700 50v700h-600v-700h600z" />
    <glyph glyph-name="divide" unicode="&#xf7;" 
d="M50 0v800h700v-800h-700zM700 50v700h-600v-700h600z" />
    <glyph glyph-name="ugrave" unicode="&#xf9;" 
d="M50 0v800h700v-800h-700zM700 50v700h-600v-700h600z" />
    <glyph glyph-name="uacute" unicode="&#xfa;" 
d="M50 0v800h700v-800h-700zM700 50v700h-600v-700h600z" />
    <glyph glyph-name="ucircumflex" unicode="&#xfb;" 
d="M50 0v800h700v-800h-700zM700 50v700h-600v-700h600z" />
    <glyph glyph-name="udieresis" unicode="&#xfc;" 
d="M50 0v800h700v-800h-700zM700 50v700h-600v-700h600z" />
    <glyph glyph-name="ydieresis" unicode="&#xff;" 
d="M50 0v800h700v-800h-700zM700 50v700h-600v-700h600z" />
    <glyph glyph-name="DC4" horiz-adv-x="220" 
 />
    <glyph glyph-name="DEL" horiz-adv-x="220" 
 />
    <glyph glyph-name="notequal" unicode="&#x2260;" 
d="M50 0v800h700v-800h-700zM700 50v700h-600v-700h600z" />
    <glyph glyph-name="infinity" unicode="&#x221e;" 
d="M50 0v800h700v-800h-700zM700 50v700h-600v-700h600z" />
    <glyph glyph-name="lessequal" unicode="&#x2264;" 
d="M50 0v800h700v-800h-700zM700 50v700h-600v-700h600z" />
    <glyph glyph-name="greaterequal" unicode="&#x2265;" 
d="M50 0v800h700v-800h-700zM700 50v700h-600v-700h600z" />
    <glyph glyph-name="partialdiff" unicode="&#x2202;" 
d="M50 0v800h700v-800h-700zM700 50v700h-600v-700h600z" />
    <glyph glyph-name="summation" unicode="&#x2211;" 
d="M50 0v800h700v-800h-700zM700 50v700h-600v-700h600z" />
    <glyph glyph-name="product" unicode="&#x220f;" 
d="M50 0v800h700v-800h-700zM700 50v700h-600v-700h600z" />
    <glyph glyph-name="pi" unicode="&#x3c0;" 
d="M50 0v800h700v-800h-700zM700 50v700h-600v-700h600z" />
    <glyph glyph-name="integral" unicode="&#x222b;" 
d="M50 0v800h700v-800h-700zM700 50v700h-600v-700h600z" />
    <glyph glyph-name="Omega" unicode="&#x3a9;" 
d="M50 0v800h700v-800h-700zM700 50v700h-600v-700h600z" />
    <glyph glyph-name="Omega" unicode="&#x2126;" 
d="M50 0v800h700v-800h-700zM700 50v700h-600v-700h600z" />
    <glyph glyph-name="radical" unicode="&#x221a;" 
d="M50 0v800h700v-800h-700zM700 50v700h-600v-700h600z" />
    <glyph glyph-name="approxequal" unicode="&#x2248;" 
d="M50 0v800h700v-800h-700zM700 50v700h-600v-700h600z" />
    <glyph glyph-name="approxequal" unicode="&#x22f2;" 
d="M50 0v800h700v-800h-700zM700 50v700h-600v-700h600z" />
    <glyph glyph-name="Delta" unicode="&#x394;" 
d="M50 0v800h700v-800h-700zM700 50v700h-600v-700h600z" />
    <glyph glyph-name="Delta" unicode="&#x2206;" 
d="M50 0v800h700v-800h-700zM700 50v700h-600v-700h600z" />
    <glyph glyph-name="lozenge" unicode="&#x25ca;" 
d="M50 0v800h700v-800h-700zM700 50v700h-600v-700h600z" />
    <glyph glyph-name="apple" unicode="&#xf000;" 
d="M50 0v800h700v-800h-700zM700 50v700h-600v-700h600z" />
  </font>
</defs>
</svg>
